<svg width="24" height="24" viewBox="0 0 24 24" fill="none" xmlns="http://www.w3.org/2000/svg">
<g clip-path="url(#clip0_2442_46606)">
<path fill-rule="evenodd" clip-rule="evenodd" d="M12 0C18.6281 0 24 5.37188 24 12C24 18.6281 18.6281 24 12 24C5.37188 24 0 18.6281 0 12C0 5.37188 5.37188 0 12 0Z" fill="white"/>
<path d="M10.1669 9.33665C10.1669 8.73433 10.3777 8.22237 10.7993 7.80075C11.2209 7.37913 11.7329 7.16832 12.3352 7.16832C12.9375 7.16832 13.4495 7.37913 13.8711 7.80075C14.2927 8.22237 14.5036 8.73434 14.5036 9.33665C14.5036 9.93896 14.2927 10.4509 13.8711 10.8725C13.4495 11.2942 12.9375 11.505 12.3352 11.505C11.7329 11.505 11.2209 11.2942 10.7993 10.8725C10.3777 10.4509 10.1669 9.93896 10.1669 9.33665ZM7.99858 9.33665C7.99858 10.2642 8.26359 11.1014 8.79363 11.8483C9.32366 12.5952 10.0223 13.1192 10.8897 13.4203L10.8897 13.6733L9.95007 14.6129C9.87779 14.6852 9.82659 14.7635 9.79648 14.8478C9.76636 14.9321 9.75131 15.0225 9.75131 15.1188C9.75131 15.2152 9.76636 15.3056 9.79648 15.3899C9.82659 15.4742 9.87779 15.5525 9.95007 15.6248L10.8897 16.5644L9.89586 17.8292C9.83563 17.9015 9.79046 17.9828 9.76034 18.0732C9.73022 18.1635 9.72119 18.2569 9.73324 18.3533C9.74528 18.4496 9.77239 18.537 9.81455 18.6153C9.85671 18.6936 9.91393 18.7628 9.98621 18.8231L11.8474 20.4493C11.9196 20.5095 11.9979 20.5547 12.0823 20.5848C12.1666 20.6149 12.2569 20.63 12.3533 20.63C12.4497 20.63 12.537 20.6119 12.6153 20.5758C12.6936 20.5397 12.7629 20.4915 12.8231 20.4312L13.5639 19.6904C13.6362 19.6181 13.6904 19.5368 13.7266 19.4465C13.7627 19.3561 13.7808 19.2628 13.7808 19.1664L13.7808 13.4203C14.5999 13.1312 15.2866 12.6223 15.8407 11.8935C16.3948 11.1647 16.6719 10.3124 16.6719 9.33665C16.6719 8.13202 16.2503 7.10809 15.407 6.26486C14.5638 5.42162 13.5399 5 12.3352 5C11.1306 5 10.1067 5.42162 9.26343 6.26486C8.4202 7.10809 7.99858 8.13202 7.99858 9.33665Z" fill="#1D1D1D"/>
</g>
<defs>
<clipPath id="clip0_2442_46606">
<rect width="24" height="24" rx="12" fill="white"/>
</clipPath>
</defs>
</svg>
