<svg width="80" height="80" viewBox="0 0 80 80" fill="none" xmlns="http://www.w3.org/2000/svg">
<path fill-rule="evenodd" clip-rule="evenodd" d="M23 20.5C23 26.299 18.299 31 12.5 31C6.70101 31 2 26.299 2 20.5C2 14.701 6.70101 10 12.5 10C18.299 10 23 14.701 23 20.5ZM28 15C27.4477 15 27 15.4477 27 16V18C27 18.5523 27.4477 19 28 19H71C71.5523 19 72 18.5523 72 18V16C72 15.4477 71.5523 15 71 15H28ZM28 23C27.4477 23 27 23.4477 27 24V26C27 26.5523 27.4477 27 28 27H57C57.5523 27 58 26.5523 58 26V24C58 23.4477 57.5523 23 57 23H28ZM23 45.5C23 51.299 18.299 56 12.5 56C6.70101 56 2 51.299 2 45.5C2 39.701 6.70101 35 12.5 35C18.299 35 23 39.701 23 45.5ZM28 40C27.4477 40 27 40.4477 27 41V43C27 43.5523 27.4477 44 28 44H71C71.5523 44 72 43.5523 72 43V41C72 40.4477 71.5523 40 71 40H28ZM28 48C27.4477 48 27 48.4477 27 49V51C27 51.5523 27.4477 52 28 52H57C57.5523 52 58 51.5523 58 51V49C58 48.4477 57.5523 48 57 48H28Z" fill="url(#paint0_linear_2454_61493)"/>
<path fill-rule="evenodd" clip-rule="evenodd" d="M47.4442 35.2021C50.5687 33.1143 54.2422 32 58 32C63.0391 32 67.8718 34.0018 71.435 37.565C74.9982 41.1282 77 45.9609 77 51C77 54.7578 75.8857 58.4313 73.7979 61.5558C71.7102 64.6804 68.7428 67.1156 65.271 68.5537C61.7992 69.9918 57.9789 70.368 54.2933 69.6349C50.6077 68.9018 47.2222 67.0922 44.565 64.435C41.9078 61.7778 40.0982 58.3923 39.3651 54.7067C38.632 51.0211 39.0082 47.2008 40.4463 43.729C41.8844 40.2572 44.3196 37.2898 47.4442 35.2021ZM48.9521 64.5411C51.6303 66.3306 54.779 67.2857 58 67.2857C62.3192 67.2857 66.4616 65.5699 69.5157 62.5157C72.5699 59.4616 74.2857 55.3192 74.2857 51C74.2857 47.779 73.3306 44.6303 71.5411 41.9521C69.7516 39.274 67.2081 37.1866 64.2323 35.954C61.2565 34.7213 57.9819 34.3988 54.8228 35.0272C51.6637 35.6556 48.7619 37.2067 46.4843 39.4843C44.2067 41.7619 42.6556 44.6637 42.0272 47.8228C41.3988 50.9819 41.7213 54.2564 42.954 57.2323C44.1866 60.2081 46.274 62.7516 48.9521 64.5411ZM50.4601 39.7158C52.6919 38.2245 55.3158 37.4286 58 37.4286C61.5994 37.4286 65.0513 38.8584 67.5964 41.4035C70.1416 43.9487 71.5714 47.4006 71.5714 51C71.5714 53.6842 70.7755 56.3081 69.2842 58.5399C67.793 60.7717 65.6734 62.5112 63.1936 63.5384C60.7137 64.5655 57.9849 64.8343 55.3523 64.3107C52.7198 63.787 50.3016 62.4944 48.4036 60.5964C46.5056 58.6984 45.213 56.2802 44.6893 53.6476C44.1657 51.0151 44.4345 48.2863 45.4616 45.8064C46.4888 43.3266 48.2283 41.207 50.4601 39.7158ZM57.0404 44.6118C56.7858 44.8663 56.6429 45.2115 56.6429 45.5714V48.2857C56.6429 48.6456 56.7858 48.9908 57.0404 49.2454C57.2949 49.4999 57.6401 49.6429 58 49.6429C58.3599 49.6429 58.7051 49.4999 58.9596 49.2454C59.2142 48.9908 59.3571 48.6456 59.3571 48.2857V45.5714C59.3571 45.2115 59.2142 44.8663 58.9596 44.6118C58.7051 44.3573 58.3599 44.2143 58 44.2143C57.6401 44.2143 57.2949 44.3573 57.0404 44.6118ZM52.5714 52.3571H55.2857C55.6457 52.3571 55.9908 52.2142 56.2454 51.9596C56.4999 51.7051 56.6429 51.3599 56.6429 51C56.6429 50.6401 56.4999 50.2949 56.2454 50.0404C55.9908 49.7858 55.6457 49.6429 55.2857 49.6429H52.5714C52.2115 49.6429 51.8663 49.7858 51.6118 50.0404C51.3573 50.2949 51.2143 50.6401 51.2143 51C51.2143 51.3599 51.3573 51.7051 51.6118 51.9596C51.8663 52.2142 52.2115 52.3571 52.5714 52.3571ZM58.9596 57.3882C59.2142 57.1337 59.3571 56.7885 59.3571 56.4286V53.7143C59.3571 53.3543 59.2142 53.0091 58.9596 52.7546C58.7051 52.5001 58.3599 52.3571 58 52.3571C57.6401 52.3571 57.2949 52.5001 57.0404 52.7546C56.7858 53.0091 56.6429 53.3543 56.6429 53.7143V56.4286C56.6429 56.7885 56.7858 57.1337 57.0404 57.3882C57.2949 57.6427 57.6401 57.7857 58 57.7857C58.3599 57.7857 58.7051 57.6427 58.9596 57.3882ZM60.7143 52.3571H63.4286C63.7885 52.3571 64.1337 52.2142 64.3882 51.9596C64.6427 51.7051 64.7857 51.3599 64.7857 51C64.7857 50.6401 64.6427 50.2949 64.3882 50.0404C64.1337 49.7858 63.7885 49.6429 63.4286 49.6429H60.7143C60.3544 49.6429 60.0092 49.7858 59.7546 50.0404C59.5001 50.2949 59.3571 50.6401 59.3571 51C59.3571 51.3599 59.5001 51.7051 59.7546 51.9596C60.0092 52.2142 60.3544 52.3571 60.7143 52.3571Z" fill="url(#paint1_linear_2454_61493)"/>
<defs>
<linearGradient id="paint0_linear_2454_61493" x1="81.6809" y1="6.08511" x2="51.145" y2="74.5007" gradientUnits="userSpaceOnUse">
<stop stop-color="#0E4923"/>
<stop offset="1" stop-color="#0B170B"/>
</linearGradient>
<linearGradient id="paint1_linear_2454_61493" x1="54.749" y1="32" x2="76.8683" y2="82.2767" gradientUnits="userSpaceOnUse">
<stop stop-color="#5A6F62"/>
<stop offset="1" stop-color="#133720"/>
</linearGradient>
</defs>
</svg>
