<svg width="80" height="80" viewBox="0 0 80 80" fill="none" xmlns="http://www.w3.org/2000/svg">
    <path d="M24.1992 13.0556C24.1992 9.93664 26.7277 7.4082 29.8466 7.4082H49.2242C50.4566 7.4082 51.6399 7.89165 52.5197 8.75466L66.4604 22.4289C67.3627 23.3139 67.8711 24.5247 67.8711 25.7886V56.3525C67.8711 59.4714 65.3427 61.9999 62.2237 61.9999H29.8466C26.7277 61.9999 24.1992 59.4715 24.1992 56.3525V13.0556Z" fill="url(#paint0_linear_4485_66895)"/>
    <path fill-rule="evenodd" clip-rule="evenodd" d="M16.0045 70.2963C17.1404 71.4321 18.5058 72 20.1008 72H54.9008C56.4958 72 57.8612 71.4321 58.997 70.2963C60.1329 69.1604 60.7008 67.795 60.7008 66.2V33.7925C60.7008 33.0192 60.5558 32.2821 60.2658 31.5813C59.9758 30.8804 59.5649 30.2642 59.0333 29.7325L44.9683 15.6675C44.4366 15.1358 43.8204 14.725 43.1195 14.435C42.4187 14.145 41.6816 14 40.9083 14H20.1008C18.5058 14 17.1404 14.5679 16.0045 15.7038C14.8687 16.8396 14.3008 18.205 14.3008 19.8V33.7412C14.3008 36.4462 17.8289 36.4462 17.8289 33.7412V17.4814H40.4008V31.4C40.4008 32.2217 40.6787 32.9104 41.2345 33.4663C41.7904 34.0221 42.4791 34.3 43.3008 34.3H57.1178V68.5355H17.7615V63.543C17.7615 60.9255 14.3008 60.8748 14.3008 63.543V66.2C14.3008 67.795 14.8687 69.1604 16.0045 70.2963ZM16.6315 46.221L31.8626 46.221L29.8233 44.1817C29.3572 43.7155 29.1338 43.1717 29.1532 42.5502C29.1726 41.9287 29.396 41.3849 29.8233 40.9187C30.2894 40.4526 30.8333 40.2098 31.4548 40.1904C32.0763 40.171 32.6201 40.3943 33.0862 40.8605L39.146 46.9202C39.3791 47.1533 39.5442 47.4058 39.6413 47.6777C39.7384 47.9496 39.7869 48.2409 39.7869 48.5517C39.7869 48.8624 39.7384 49.1538 39.6413 49.4257C39.5442 49.6976 39.3791 49.9501 39.146 50.1832L33.0862 56.2429C32.6201 56.7091 32.0763 56.9324 31.4548 56.913C30.8333 56.8936 30.2894 56.6702 29.8233 56.2429C29.5902 56.0098 29.4154 55.7574 29.2989 55.4855C29.1824 55.2135 29.1144 54.9319 29.095 54.6406C29.0755 54.3492 29.1241 54.0579 29.2406 53.7666C29.3572 53.4752 29.532 53.213 29.765 52.98L31.8626 50.8824H16.6315C15.9711 50.8824 15.4176 50.659 14.9709 50.2123C14.5241 49.7656 14.3008 49.212 14.3008 48.5517C14.3008 47.8913 14.5241 47.3378 14.9709 46.8911C15.4176 46.4444 15.9711 46.221 16.6315 46.221Z" fill="url(#paint1_linear_4485_66895)"/>
    <defs>
        <linearGradient id="paint0_linear_4485_66895" x1="73.9108" y1="2.76211" x2="25.8714" y2="59.3441" gradientUnits="userSpaceOnUse">
            <stop stop-color="#3F4F47"/>
            <stop offset="1" stop-color="#283931"/>
        </linearGradient>
        <linearGradient id="paint1_linear_4485_66895" x1="60.7008" y1="14" x2="22.7523" y2="64.1728" gradientUnits="userSpaceOnUse">
            <stop stop-color="#60977E"/>
            <stop offset="1" stop-color="#244033"/>
        </linearGradient>
    </defs>
</svg>
