<svg width="80" height="80" viewBox="0 0 80 80" fill="none" xmlns="http://www.w3.org/2000/svg">
<rect x="19" y="45" width="58" height="17" rx="4" fill="url(#paint0_linear_2199_55619)"/>
<path d="M37.9286 46.8357L29.7624 38.6695C29.3587 38.2658 28.8794 38.0547 28.3243 38.0361C27.7693 38.0175 27.2634 38.2366 26.8066 38.6933C26.3657 39.1502 26.1413 39.6388 26.1333 40.1593C26.1254 40.6798 26.3498 41.1685 26.8066 41.6252L37.6577 52.4764C38.0189 52.8375 38.388 53.0912 38.7651 53.2373C39.1422 53.3833 39.5538 53.4563 40 53.4563C40.4462 53.4563 40.8578 53.3833 41.2349 53.2373C41.612 53.0912 41.9811 52.8375 42.3423 52.4764L53.1934 41.6252C53.5971 41.2216 53.8082 40.7462 53.8268 40.1992C53.8454 39.6521 53.6343 39.1502 53.1934 38.6933C52.7366 38.2366 52.244 38.0042 51.7156 37.9962C51.1871 37.9883 50.6944 38.2127 50.2376 38.6695L42.0714 46.8357V13.0714C42.0714 12.4818 41.8736 11.9892 41.4779 11.5936C41.0822 11.1979 40.5896 11 40 11C39.4104 11 38.9178 11.1979 38.5221 11.5936C38.1264 11.9892 37.9286 12.4818 37.9286 13.0714V46.8357ZM11 54.3407V62.3077C11 64.2145 11.6387 65.8065 12.9161 67.0839C14.1935 68.3613 15.7855 69 17.6923 69H62.3077C64.2145 69 65.8065 68.3613 67.0839 67.0839C68.3613 65.8065 69 64.2145 69 62.3077V54.3407C69 53.7511 68.8021 53.2585 68.4064 52.8627C68.0108 52.4671 67.5182 52.2693 66.9286 52.2693C66.339 52.2693 65.8464 52.4671 65.4507 52.8627C65.055 53.2585 64.8571 53.7511 64.8571 54.3407V62.3077C64.8571 62.945 64.5916 63.5293 64.0605 64.0605C63.5293 64.5916 62.945 64.8571 62.3077 64.8571H17.6923C17.055 64.8571 16.4707 64.5916 15.9395 64.0605C15.4084 63.5293 15.1429 62.945 15.1429 62.3077V54.3407C15.1429 53.7511 14.945 53.2585 14.5493 52.8627C14.1536 52.4671 13.661 52.2693 13.0714 52.2693C12.4818 52.2693 11.9892 52.4671 11.5936 52.8627C11.1979 53.2585 11 53.7511 11 54.3407Z" fill="url(#paint1_linear_2199_55619)"/>
<defs>
<linearGradient id="paint0_linear_2199_55619" x1="85.0213" y1="43.5532" x2="79.2153" y2="72.7182" gradientUnits="userSpaceOnUse">
<stop stop-color="#0E4923"/>
<stop offset="1" stop-color="#0B170B"/>
</linearGradient>
<linearGradient id="paint1_linear_2199_55619" x1="35.0379" y1="69" x2="68.7989" y2="-7.73816" gradientUnits="userSpaceOnUse">
<stop stop-color="#5A6F62"/>
<stop offset="1" stop-color="#133720"/>
</linearGradient>
</defs>
</svg>
