<svg width="80" height="80" viewBox="0 0 80 80" fill="none" xmlns="http://www.w3.org/2000/svg">
<path d="M24.5299 59C22.9723 59 21.6613 58.4726 20.5968 57.4178C19.5323 56.363 19 55.0639 19 53.5205V8.47949C19 6.93612 19.5323 5.63701 20.5968 4.58217C21.6613 3.52739 22.9723 3 24.5299 3H69.9309C71.4885 3 72.7996 3.52739 73.8641 4.58217C74.9286 5.63701 75.4609 6.93612 75.4609 8.47949V13.8493H53.1198C50.3963 13.8493 48.2223 14.6541 46.5979 16.2637C44.9734 17.8733 44.1612 20.0274 44.1612 22.726V39.274C44.1612 41.9726 44.9734 44.1267 46.5979 45.7363C48.2223 47.3459 50.3963 48.1507 53.1198 48.1507H75.4609V53.5205C75.4609 55.0639 74.9286 56.363 73.8641 57.4178C72.7996 58.4726 71.4885 59 69.9309 59H24.5299ZM53.1198 44.8631C51.4954 44.8631 50.1492 44.3339 49.0812 43.2757C48.0133 42.2175 47.4793 40.8836 47.4793 39.274V22.726C47.4793 21.1164 48.0133 19.7825 49.0812 18.7243C50.1492 17.6661 51.4954 17.1369 53.1198 17.1369H73.3595C74.9839 17.1369 76.3301 17.6661 77.398 18.7243C78.466 19.7825 79 21.1164 79 22.726V39.274C79 40.8836 78.466 42.2175 77.398 43.2757C76.3301 44.3339 74.9839 44.8631 73.3595 44.8631H53.1198ZM61.47 36.2877C62.9908 36.2877 64.2604 35.7831 65.2788 34.774C66.2973 33.7649 66.8065 32.5069 66.8065 31C66.8065 29.4931 66.2973 28.2351 65.2788 27.226C64.2604 26.2169 62.9908 25.7123 61.47 25.7123C59.9493 25.7123 58.6798 26.2169 57.6613 27.226C56.6429 28.2351 56.1337 29.4931 56.1337 31C56.1337 32.5069 56.6429 33.7649 57.6613 34.774C58.6798 35.7831 59.9493 36.2877 61.47 36.2877Z" fill="url(#paint0_linear_1983_50465)"/>
<path d="M12.4286 57.7632V65.5948V14.4052V57.7632ZM14.7142 69C13.1309 69 11.7827 68.4473 10.6696 67.3418C9.55652 66.2363 9 64.8973 9 63.3248V16.6752C9 15.1027 9.55652 13.7637 10.6696 12.6582C11.7827 11.5527 13.1309 11 14.7142 11H61.6286C63.2119 11 64.5601 11.5527 65.6732 12.6582C66.7864 13.7637 67.3429 15.1027 67.3429 16.6752V27.6991H63.9143V16.6752C63.9143 16.0131 63.7 15.4692 63.2714 15.0436C62.8428 14.618 62.2952 14.4052 61.6286 14.4052H14.7142C14.0476 14.4052 13.5 14.618 13.0714 15.0436C12.6428 15.4692 12.4286 16.0131 12.4286 16.6752V63.3248C12.4286 63.9869 12.6428 64.5308 13.0714 64.9564C13.5 65.382 14.0476 65.5948 14.7142 65.5948H61.6286C62.2952 65.5948 62.8428 65.382 63.2714 64.9564C63.7 64.5308 63.9143 63.9869 63.9143 63.3248V52.3009H67.3429V63.3248C67.3429 64.8973 66.7864 66.2363 65.6732 67.3418C64.5601 68.4473 63.2119 69 61.6286 69H14.7142ZM44.2554 54.3582C42.6327 54.3582 41.2559 53.7953 40.125 52.6695C38.994 51.5437 38.4286 50.1804 38.4286 48.5794V31.4268C38.4286 29.8166 38.9951 28.4499 40.128 27.3267C41.261 26.2035 42.6332 25.6418 44.2445 25.6418H65.1732C66.7959 25.6418 68.1727 26.2047 69.3036 27.3305C70.4345 28.4563 71 29.8196 71 31.4206V48.5732C71 50.1834 70.4335 51.5501 69.3005 52.6733C68.1675 53.7965 66.7954 54.3582 65.1841 54.3582H44.2554ZM65.2858 50.953C65.9524 50.953 66.5 50.7402 66.9286 50.3146C67.3572 49.8889 67.5714 49.3451 67.5714 48.683V31.317C67.5714 30.6549 67.3572 30.1111 66.9286 29.6854C66.5 29.2598 65.9524 29.047 65.2858 29.047H44.1428C43.4762 29.047 42.9286 29.2598 42.5 29.6854C42.0714 30.1111 41.8571 30.6549 41.8571 31.317V48.683C41.8571 49.3451 42.0714 49.8889 42.5 50.3146C42.9286 50.7402 43.4762 50.953 44.1428 50.953H65.2858ZM52.8802 45.4765C54.4244 45.4765 55.7304 44.9481 56.7982 43.8911C57.8661 42.8342 58.4 41.539 58.4 40.0054C58.4 38.4719 57.8679 37.1748 56.8037 36.1143C55.7394 35.0537 54.4353 34.5235 52.8912 34.5235C51.3471 34.5235 50.0411 35.0519 48.9733 36.1089C47.9054 37.1658 47.3715 38.461 47.3715 39.9946C47.3715 41.5281 47.9036 42.8252 48.9678 43.8857C50.032 44.9463 51.3361 45.4765 52.8802 45.4765Z" fill="url(#paint1_linear_1983_50465)"/>
<defs>
<linearGradient id="paint0_linear_1983_50465" x1="87.2979" y1="-1.76595" x2="42.1319" y2="69.4831" gradientUnits="userSpaceOnUse">
<stop stop-color="#0E4923"/>
<stop offset="1" stop-color="#0B170B"/>
</linearGradient>
<linearGradient id="paint1_linear_1983_50465" x1="34.6957" y1="11" x2="66.9314" y2="89.3242" gradientUnits="userSpaceOnUse">
<stop stop-color="#5A6F62"/>
<stop offset="1" stop-color="#133720"/>
</linearGradient>
</defs>
</svg>
