<svg width="80" height="80" viewBox="0 0 80 80" fill="none" xmlns="http://www.w3.org/2000/svg">
<path d="M8.44444 45.375C7.46852 45.375 6.65046 45.0456 5.99028 44.3867C5.33009 43.7279 5 42.9115 5 41.9375C5 40.9635 5.33009 40.1471 5.99028 39.4883C6.65046 38.8294 7.46852 38.5 8.44444 38.5H25.6667C26.6426 38.5 27.4606 38.8294 28.1208 39.4883C28.781 40.1471 29.1111 40.9635 29.1111 41.9375C29.1111 42.9115 28.781 43.7279 28.1208 44.3867C27.4606 45.0456 26.6426 45.375 25.6667 45.375H8.44444ZM8.44444 31.625C7.46852 31.625 6.65046 31.2956 5.99028 30.6367C5.33009 29.9779 5 29.1615 5 28.1875C5 27.2135 5.33009 26.3971 5.99028 25.7383C6.65046 25.0794 7.46852 24.75 8.44444 24.75H39.4444C40.4204 24.75 41.2384 25.0794 41.8986 25.7383C42.5588 26.3971 42.8889 27.2135 42.8889 28.1875C42.8889 29.1615 42.5588 29.9779 41.8986 30.6367C41.2384 31.2956 40.4204 31.625 39.4444 31.625H8.44444ZM8.44444 17.875C7.46852 17.875 6.65046 17.5456 5.99028 16.8867C5.33009 16.2279 5 15.4115 5 14.4375C5 13.4635 5.33009 12.6471 5.99028 11.9883C6.65046 11.3294 7.46852 11 8.44444 11H39.4444C40.4204 11 41.2384 11.3294 41.8986 11.9883C42.5588 12.6471 42.8889 13.4635 42.8889 14.4375C42.8889 15.4115 42.5588 16.2279 41.8986 16.8867C41.2384 17.5456 40.4204 17.875 39.4444 17.875H8.44444ZM36 62.5625V56.8906C36 56.4323 36.0861 55.9883 36.2583 55.5586C36.4306 55.1289 36.6889 54.7422 37.0333 54.3984L55.0306 36.5234C55.5472 36.0078 56.1213 35.6354 56.7528 35.4062C57.3843 35.1771 58.0157 35.0625 58.6472 35.0625C59.3361 35.0625 59.9963 35.1914 60.6278 35.4492C61.2593 35.707 61.8333 36.0938 62.35 36.6094L65.5361 39.7891C65.9954 40.3047 66.3542 40.8776 66.6125 41.5078C66.8708 42.138 67 42.7682 67 43.3984C67 44.0286 66.8852 44.6732 66.6556 45.332C66.4259 45.9909 66.0528 46.5781 65.5361 47.0938L47.625 64.9688C47.2806 65.3125 46.8931 65.5703 46.4625 65.7422C46.0319 65.9141 45.587 66 45.1278 66H39.4444C38.4685 66 37.6505 65.6706 36.9903 65.0117C36.3301 64.3529 36 63.5365 36 62.5625ZM58.6472 46.75L61.8333 43.3984L58.6472 40.2188L55.375 43.4844L58.6472 46.75ZM41.1667 60.8438H44.4389L54.8583 50.3594L53.3083 48.7266L51.6722 47.1797L41.1667 57.5781V60.8438ZM41.1667 60.8438V57.5781L51.6722 47.1797L54.8583 50.3594L44.4389 60.8438H41.1667Z" fill="url(#paint0_linear_3056_51170)"/>
<path d="M41 65.3333V59.2833C41 58.7944 41.0917 58.3208 41.275 57.8625C41.4583 57.4042 41.7333 56.9917 42.1 56.625L61.2583 37.5583C61.8083 37.0083 62.4194 36.6111 63.0917 36.3667C63.7639 36.1222 64.4361 36 65.1083 36C65.8417 36 66.5444 36.1375 67.2167 36.4125C67.8889 36.6875 68.5 37.1 69.05 37.65L72.4417 41.0417C72.9306 41.5917 73.3125 42.2028 73.5875 42.875C73.8625 43.5472 74 44.2194 74 44.8917C74 45.5639 73.8778 46.2514 73.6333 46.9542C73.3889 47.6569 72.9917 48.2833 72.4417 48.8333L53.375 67.9C53.0083 68.2667 52.5958 68.5417 52.1375 68.725C51.6792 68.9083 51.2056 69 50.7167 69H44.6667C43.6278 69 42.7569 68.6486 42.0542 67.9458C41.3514 67.2431 41 66.3722 41 65.3333ZM65.1083 48.4667L68.5 44.8917L65.1083 41.5L61.625 44.9833L65.1083 48.4667ZM46.5 63.5H49.9833L61.075 52.3167L59.425 50.575L57.6833 48.925L46.5 60.0167V63.5ZM46.5 63.5V60.0167L57.6833 48.925L61.075 52.3167L49.9833 63.5H46.5Z" fill="url(#paint1_linear_3056_51170)"/>
<defs>
<linearGradient id="paint0_linear_3056_51170" x1="75.5745" y1="6.31915" x2="32.2115" y2="78.2893" gradientUnits="userSpaceOnUse">
<stop stop-color="#0E4923"/>
<stop offset="1" stop-color="#0B170B"/>
</linearGradient>
<linearGradient id="paint1_linear_3056_51170" x1="54.6767" y1="36" x2="73.8856" y2="79.6614" gradientUnits="userSpaceOnUse">
<stop stop-color="#5A6F62"/>
<stop offset="1" stop-color="#133720"/>
</linearGradient>
</defs>
</svg>
