<svg width="80" height="80" viewBox="0 0 80 80" fill="none" xmlns="http://www.w3.org/2000/svg">
<path fill-rule="evenodd" clip-rule="evenodd" d="M29.7194 8.29296C33.9084 5.49396 38.8333 4 43.8714 4C50.6272 4 57.1063 6.68375 61.8834 11.4608C66.6605 16.2379 69.3443 22.7171 69.3443 29.4729C69.3443 34.511 67.8503 39.4359 65.0513 43.6249C62.2523 47.8139 58.274 51.0788 53.6194 53.0068C48.9649 54.9348 43.8431 55.4393 38.9018 54.4564C33.9606 53.4735 29.4217 51.0474 25.8593 47.485C22.2968 43.9225 19.8708 39.3837 18.8879 34.4424C17.905 29.5012 18.4095 24.3794 20.3375 19.7249C22.2654 15.0703 25.5304 11.092 29.7194 8.29296ZM42.5848 20.9084C42.2436 21.2496 42.0519 21.7124 42.0519 22.1949V25.8339C42.0519 26.3165 42.2436 26.7793 42.5848 27.1205C42.926 27.4617 43.3888 27.6534 43.8714 27.6534C44.3539 27.6534 44.8167 27.4617 45.1579 27.1205C45.4992 26.7793 45.6909 26.3165 45.6909 25.8339V22.1949C45.6909 21.7124 45.4992 21.2496 45.1579 20.9084C44.8167 20.5671 44.3539 20.3754 43.8714 20.3754C43.3888 20.3754 42.926 20.5671 42.5848 20.9084ZM36.5934 31.2924H40.2324C40.7149 31.2924 41.1777 31.1007 41.519 30.7595C41.8602 30.4183 42.0519 29.9555 42.0519 29.4729C42.0519 28.9904 41.8602 28.5276 41.519 28.1863C41.1777 27.8451 40.7149 27.6534 40.2324 27.6534H36.5934C36.1108 27.6534 35.648 27.8451 35.3068 28.1863C34.9656 28.5276 34.7739 28.9904 34.7739 29.4729C34.7739 29.9555 34.9656 30.4183 35.3068 30.7595C35.648 31.1007 36.1108 31.2924 36.5934 31.2924ZM45.1579 38.0375C45.4992 37.6963 45.6909 37.2335 45.6909 36.7509V33.1119C45.6909 32.6293 45.4992 32.1666 45.1579 31.8253C44.8167 31.4841 44.3539 31.2924 43.8714 31.2924C43.3888 31.2924 42.926 31.4841 42.5848 31.8253C42.2436 32.1666 42.0519 32.6293 42.0519 33.1119V36.7509C42.0519 37.2335 42.2436 37.6963 42.5848 38.0375C42.926 38.3787 43.3888 38.5704 43.8714 38.5704C44.3539 38.5704 44.8167 38.3787 45.1579 38.0375ZM47.5104 31.2924H51.1493C51.6319 31.2924 52.0947 31.1007 52.4359 30.7595C52.7771 30.4183 52.9688 29.9555 52.9688 29.4729C52.9688 28.9904 52.7771 28.5276 52.4359 28.1863C52.0947 27.8451 51.6319 27.6534 51.1493 27.6534H47.5104C47.0278 27.6534 46.565 27.8451 46.2238 28.1863C45.8826 28.5276 45.6909 28.9904 45.6909 29.4729C45.6909 29.9555 45.8826 30.4183 46.2238 30.7595C46.565 31.1007 47.0278 31.2924 47.5104 31.2924Z" fill="url(#paint0_linear_1759_31057)"/>
<path d="M77.5983 71.9341L57.6878 51.9092L58.8003 50.464C62.6056 45.5254 64.6123 39.5991 64.6123 33.3504C64.6123 17.7339 51.9174 5.03906 36.3113 5.03906C20.7053 5.03906 8 17.7339 8 33.3504C8 48.9669 20.6949 61.6513 36.3113 61.6513C42.2169 61.6513 47.9145 59.8111 52.7596 56.328L54.1944 55.2987L74.1776 75.3235C74.6351 75.7706 75.2277 75.9994 75.9451 75.9994C77.3383 75.9994 78.2429 75.0532 78.2429 73.5872C78.2429 72.9426 78.0142 72.3604 77.5983 71.9341ZM36.3113 59.3016C21.9945 59.3016 10.3497 47.6568 10.3497 33.3504C10.3497 19.044 21.9945 7.38881 36.3113 7.38881C50.6282 7.38881 62.2625 19.0336 62.2625 33.3504C62.2625 47.6672 50.6178 59.3016 36.3113 59.3016Z" fill="url(#paint1_linear_1759_31057)"/>
<defs>
<linearGradient id="paint0_linear_1759_31057" x1="76.39" y1="-0.335815" x2="34.1567" y2="61.8455" gradientUnits="userSpaceOnUse">
<stop stop-color="#0E4923"/>
<stop offset="1" stop-color="#0B170B"/>
</linearGradient>
<linearGradient id="paint1_linear_1759_31057" x1="37.1119" y1="5.03906" x2="78.7004" y2="98.6131" gradientUnits="userSpaceOnUse">
<stop stop-color="#5A6F62"/>
<stop offset="1" stop-color="#133720"/>
</linearGradient>
</defs>
</svg>
