<svg width="80" height="80" viewBox="0 0 80 80" fill="none" xmlns="http://www.w3.org/2000/svg">
    <path fill-rule="evenodd" clip-rule="evenodd" d="M32.8028 18.6056C36.5599 18.6056 39.6056 15.5599 39.6056 11.8028C39.6056 11.4725 39.5821 11.1476 39.5366 10.8298H71.6477C72.2 10.8298 72.6477 10.3821 72.6477 9.82983V9.23828C72.6477 8.686 72.2 8.23828 71.6477 8.23828H38.5981C37.4004 6.29521 35.2529 5 32.8028 5C29.0457 5 26 8.04572 26 11.8028C26 15.5599 29.0457 18.6056 32.8028 18.6056ZM42.1992 14.4219C42.1992 13.8696 42.6469 13.4219 43.1992 13.4219H61.2837C61.836 13.4219 62.2837 13.8696 62.2837 14.4219V15.0134C62.2837 15.5657 61.836 16.0134 61.2837 16.0134H43.1992C42.6469 16.0134 42.1992 15.5657 42.1992 15.0134V14.4219ZM39.5368 27.029C39.5822 27.3462 39.6056 27.6704 39.6056 28.0001C39.6056 31.7572 36.5599 34.8029 32.8028 34.8029C29.0457 34.8029 26 31.7572 26 28.0001C26 24.243 29.0457 21.1973 32.8028 21.1973C35.2537 21.1973 37.4019 22.4933 38.5993 24.4375H71.6477C72.2 24.4375 72.6477 24.8852 72.6477 25.4375V26.029C72.6477 26.5813 72.2 27.029 71.6477 27.029H39.5368ZM43.1992 29.6211C42.6469 29.6211 42.1992 30.0688 42.1992 30.6211V31.2126C42.1992 31.7649 42.6469 32.2126 43.1992 32.2126H61.2837C61.836 32.2126 62.2837 31.7649 62.2837 31.2126V30.6211C62.2837 30.0688 61.836 29.6211 61.2837 29.6211H43.1992ZM39.5366 43.2224C39.5821 43.5402 39.6056 43.865 39.6056 44.1954C39.6056 47.9525 36.5599 50.9982 32.8028 50.9982C29.0457 50.9982 26 47.9525 26 44.1954C26 40.4383 29.0457 37.3926 32.8028 37.3926C35.2529 37.3926 37.4004 38.6878 38.5981 40.6309H71.6477C72.2 40.6309 72.6477 41.0786 72.6477 41.6309V42.2224C72.6477 42.7747 72.2 43.2224 71.6477 43.2224H39.5366ZM43.1992 45.8145C42.6469 45.8145 42.1992 46.2622 42.1992 46.8145V47.406C42.1992 47.9583 42.6469 48.406 43.1992 48.406H61.2837C61.836 48.406 62.2837 47.9583 62.2837 47.406V46.8145C62.2837 46.2622 61.836 45.8145 61.2837 45.8145H43.1992Z" fill="url(#paint0_linear_7357_270254)"/>
    <path d="M77.5983 71.9341L57.6878 51.9092L58.8003 50.464C62.6056 45.5254 64.6123 39.5991 64.6123 33.3504C64.6123 17.7339 51.9174 5.03906 36.3113 5.03906C20.7053 5.03906 8 17.7339 8 33.3504C8 48.9669 20.6949 61.6513 36.3113 61.6513C42.2169 61.6513 47.9145 59.8111 52.7596 56.328L54.1944 55.2987L74.1776 75.3235C74.6351 75.7706 75.2277 75.9994 75.9451 75.9994C77.3383 75.9994 78.2429 75.0532 78.2429 73.5872C78.2429 72.9426 78.0142 72.3604 77.5983 71.9341ZM36.3113 59.3016C21.9945 59.3016 10.3497 47.6568 10.3497 33.3504C10.3497 19.044 21.9945 7.38881 36.3113 7.38881C50.6282 7.38881 62.2625 19.0336 62.2625 33.3504C62.2625 47.6672 50.6178 59.3016 36.3113 59.3016Z" fill="url(#paint1_linear_7357_270254)"/>
    <defs>
        <linearGradient id="paint0_linear_7357_270254" x1="79.099" y1="1.08526" x2="41.167" y2="57.7222" gradientUnits="userSpaceOnUse">
            <stop stop-color="#3F4F47"/>
            <stop offset="1" stop-color="#283931"/>
        </linearGradient>
        <linearGradient id="paint1_linear_7357_270254" x1="78.2429" y1="5.03907" x2="35.3007" y2="75.2904" gradientUnits="userSpaceOnUse">
            <stop stop-color="#60977E"/>
            <stop offset="1" stop-color="#244033"/>
        </linearGradient>
    </defs>
</svg>
