<svg width="80" height="80" viewBox="0 0 80 80" fill="none" xmlns="http://www.w3.org/2000/svg">
    <path d="M28.2091 63C27.5036 63 26.8922 62.7667 26.3749 62.3C25.8575 61.8333 25.5518 61.25 25.4578 60.55L24.6112 54.04C23.9998 53.8067 23.4237 53.5267 22.8829 53.2C22.342 52.8733 21.8129 52.5233 21.2956 52.15L15.1581 54.67C14.4997 54.95 13.8413 54.985 13.1828 54.775C12.5244 54.565 12.0071 54.1567 11.6308 53.55L6.41045 44.52C6.0342 43.9133 5.91663 43.26 6.05772 42.56C6.19881 41.86 6.55154 41.3 7.1159 40.88L12.4068 36.89C12.3598 36.5633 12.3363 36.2483 12.3363 35.945V34.055C12.3363 33.7517 12.3598 33.4367 12.4068 33.11L7.1159 29.12C6.55154 28.7 6.19881 28.14 6.05772 27.44C5.91663 26.74 6.0342 26.0867 6.41045 25.48L11.6308 16.45C12.0071 15.8433 12.5244 15.435 13.1828 15.225C13.8413 15.015 14.4997 15.05 15.1581 15.33L21.2956 17.85C21.8129 17.4767 22.3538 17.1267 22.9181 16.8C23.4825 16.4733 24.0469 16.1933 24.6112 15.96L25.4578 9.45C25.5518 8.75 25.8575 8.16667 26.3749 7.7C26.8922 7.23333 27.5036 7 28.2091 7H38.7909C39.4964 7 40.1078 7.23333 40.6251 7.7C41.1425 8.16667 41.4482 8.75 41.5422 9.45L42.3888 15.96C43.0002 16.1933 43.5763 16.4733 44.1171 16.8C44.658 17.1267 45.1871 17.4767 45.7044 17.85L51.8419 15.33C52.5003 15.05 53.1587 15.015 53.8172 15.225C54.4756 15.435 54.9929 15.8433 55.3692 16.45L60.5896 25.48C60.9658 26.0867 61.0834 26.74 60.9423 27.44C60.8012 28.14 60.4485 28.7 59.8841 29.12L54.5932 33.11C54.6402 33.4367 54.6637 33.7517 54.6637 34.055V35.945C54.6637 36.2483 54.6167 36.5633 54.5226 36.89L59.8135 40.88C60.3779 41.3 60.7306 41.86 60.8717 42.56C61.0128 43.26 60.8953 43.9133 60.519 44.52L55.2986 53.48C54.9224 54.0867 54.3933 54.5067 53.7113 54.74C53.0294 54.9733 52.3592 54.95 51.7008 54.67L45.7044 52.15C45.1871 52.5233 44.6462 52.8733 44.0819 53.2C43.5175 53.5267 42.9531 53.8067 42.3888 54.04L41.5422 60.55C41.4482 61.25 41.1425 61.8333 40.6251 62.3C40.1078 62.7667 39.4964 63 38.7909 63H28.2091ZM33.6411 44.8C36.3689 44.8 38.6969 43.8433 40.6251 41.93C42.5534 40.0167 43.5175 37.7067 43.5175 35C43.5175 32.2933 42.5534 29.9833 40.6251 28.07C38.6969 26.1567 36.3689 25.2 33.6411 25.2C30.8663 25.2 28.5265 26.1567 26.6218 28.07C24.7171 29.9833 23.7647 32.2933 23.7647 35C23.7647 37.7067 24.7171 40.0167 26.6218 41.93C28.5265 43.8433 30.8663 44.8 33.6411 44.8Z" fill="url(#paint0_linear_3533_37637)"/>
    <path fill-rule="evenodd" clip-rule="evenodd" d="M37.9997 32.7919C41.6998 30.3196 46.0499 29 50.5 29C56.4674 29 62.1903 31.3705 66.4099 35.5901C70.6295 39.8097 73 45.5326 73 51.5C73 55.9501 71.6804 60.3002 69.2081 64.0003C66.7357 67.7004 63.2217 70.5843 59.1104 72.2873C54.999 73.9903 50.475 74.4358 46.1105 73.5677C41.7459 72.6995 37.7368 70.5566 34.5901 67.4099C31.4434 64.2632 29.3005 60.2541 28.4323 55.8895C27.5642 51.525 28.0097 47.001 29.7127 42.8896C31.4157 38.7783 34.2996 35.2643 37.9997 32.7919ZM39.7854 67.5355C42.957 69.6546 46.6857 70.7857 50.5 70.7857C55.6149 70.7857 60.5203 68.7538 64.1371 65.1371C67.7538 61.5203 69.7857 56.6149 69.7857 51.5C69.7857 47.6856 68.6546 43.9569 66.5355 40.7854C64.4163 37.6139 61.4043 35.142 57.8803 33.6823C54.3563 32.2226 50.4786 31.8407 46.7376 32.5849C42.9965 33.329 39.5601 35.1658 36.8629 37.8629C34.1658 40.5601 32.329 43.9965 31.5849 47.7375C30.8407 51.4786 31.2226 55.3563 32.6823 58.8803C34.142 62.4043 36.6139 65.4163 39.7854 67.5355ZM41.5712 38.1371C44.2141 36.3711 47.3214 35.4286 50.5 35.4286C54.7624 35.4286 58.8502 37.1218 61.8642 40.1358C64.8782 43.1498 66.5714 47.2376 66.5714 51.5C66.5714 54.6786 65.6289 57.7859 63.8629 60.4288C62.097 63.0717 59.5869 65.1317 56.6503 66.3481C53.7136 67.5645 50.4822 67.8827 47.3646 67.2626C44.2471 66.6425 41.3834 65.1118 39.1358 62.8642C36.8882 60.6166 35.3575 57.7529 34.7374 54.6354C34.1173 51.5178 34.4355 48.2864 35.6519 45.3497C36.8684 42.4131 38.9283 39.903 41.5712 38.1371ZM49.3636 43.935C49.0622 44.2364 48.8929 44.6452 48.8929 45.0714V48.2857C48.8929 48.712 49.0622 49.1207 49.3636 49.4221C49.665 49.7235 50.0738 49.8929 50.5 49.8929C50.9262 49.8929 51.335 49.7235 51.6364 49.4221C51.9378 49.1207 52.1071 48.712 52.1071 48.2857V45.0714C52.1071 44.6452 51.9378 44.2364 51.6364 43.935C51.335 43.6336 50.9262 43.4643 50.5 43.4643C50.0738 43.4643 49.665 43.6336 49.3636 43.935ZM44.0714 53.1071H47.2857C47.712 53.1071 48.1207 52.9378 48.4221 52.6364C48.7235 52.335 48.8929 51.9262 48.8929 51.5C48.8929 51.0738 48.7235 50.665 48.4221 50.3636C48.1207 50.0622 47.712 49.8929 47.2857 49.8929H44.0714C43.6452 49.8929 43.2364 50.0622 42.935 50.3636C42.6336 50.665 42.4643 51.0738 42.4643 51.5C42.4643 51.9262 42.6336 52.335 42.935 52.6364C43.2364 52.9378 43.6452 53.1071 44.0714 53.1071ZM51.6364 59.065C51.9378 58.7636 52.1071 58.3548 52.1071 57.9286V54.7143C52.1071 54.288 51.9378 53.8793 51.6364 53.5779C51.335 53.2765 50.9262 53.1071 50.5 53.1071C50.0738 53.1071 49.665 53.2765 49.3636 53.5779C49.0622 53.8793 48.8929 54.288 48.8929 54.7143V57.9286C48.8929 58.3548 49.0622 58.7636 49.3636 59.065C49.665 59.3664 50.0738 59.5357 50.5 59.5357C50.9262 59.5357 51.335 59.3664 51.6364 59.065ZM53.7143 53.1071H56.9286C57.3548 53.1071 57.7636 52.9378 58.065 52.6364C58.3664 52.335 58.5357 51.9262 58.5357 51.5C58.5357 51.0738 58.3664 50.665 58.065 50.3636C57.7636 50.0622 57.3548 49.8929 56.9286 49.8929H53.7143C53.288 49.8929 52.8793 50.0622 52.5779 50.3636C52.2765 50.665 52.1071 51.0738 52.1071 51.5C52.1071 51.9262 52.2765 52.335 52.5779 52.6364C52.8793 52.9378 53.288 53.1071 53.7143 53.1071Z" fill="url(#paint1_linear_3533_37637)"/>
    <defs>
        <linearGradient id="paint0_linear_3533_37637" x1="68.6064" y1="2.23405" x2="21.8805" y2="69.8014" gradientUnits="userSpaceOnUse">
            <stop stop-color="#23342E"/>
            <stop offset="1" stop-color="#212E28"/>
        </linearGradient>
        <linearGradient id="paint1_linear_3533_37637" x1="73" y1="29" x2="45.8949" y2="73.7956" gradientUnits="userSpaceOnUse">
            <stop stop-color="#60977E"/>
            <stop offset="1" stop-color="#244033"/>
        </linearGradient>
    </defs>
</svg>
