<svg width="80" height="80" viewBox="0 0 80 80" fill="none" xmlns="http://www.w3.org/2000/svg">
    <path fill-rule="evenodd" clip-rule="evenodd" d="M35.7194 8.29296C39.9084 5.49396 44.8333 4 49.8714 4C56.6272 4 63.1063 6.68375 67.8834 11.4608C72.6605 16.2379 75.3443 22.7171 75.3443 29.4729C75.3443 34.511 73.8503 39.4359 71.0513 43.6249C68.2523 47.8139 64.274 51.0788 59.6194 53.0068C54.9649 54.9348 49.8431 55.4393 44.9018 54.4564C39.9606 53.4735 35.4217 51.0474 31.8593 47.485C28.2968 43.9225 25.8708 39.3837 24.8879 34.4424C23.905 29.5012 24.4095 24.3794 26.3375 19.7249C28.2654 15.0703 31.5304 11.092 35.7194 8.29296ZM48.5848 20.9084C48.2436 21.2496 48.0519 21.7124 48.0519 22.1949V25.8339C48.0519 26.3165 48.2436 26.7793 48.5848 27.1205C48.926 27.4617 49.3888 27.6534 49.8714 27.6534C50.3539 27.6534 50.8167 27.4617 51.1579 27.1205C51.4992 26.7793 51.6909 26.3165 51.6909 25.8339V22.1949C51.6909 21.7124 51.4992 21.2496 51.1579 20.9084C50.8167 20.5671 50.3539 20.3754 49.8714 20.3754C49.3888 20.3754 48.926 20.5671 48.5848 20.9084ZM42.5934 31.2924H46.2324C46.7149 31.2924 47.1777 31.1007 47.519 30.7595C47.8602 30.4183 48.0519 29.9555 48.0519 29.4729C48.0519 28.9904 47.8602 28.5276 47.519 28.1863C47.1777 27.8451 46.7149 27.6534 46.2324 27.6534H42.5934C42.1108 27.6534 41.648 27.8451 41.3068 28.1863C40.9656 28.5276 40.7739 28.9904 40.7739 29.4729C40.7739 29.9555 40.9656 30.4183 41.3068 30.7595C41.648 31.1007 42.1108 31.2924 42.5934 31.2924ZM51.1579 38.0375C51.4992 37.6963 51.6909 37.2335 51.6909 36.7509V33.1119C51.6909 32.6293 51.4992 32.1666 51.1579 31.8253C50.8167 31.4841 50.3539 31.2924 49.8714 31.2924C49.3888 31.2924 48.926 31.4841 48.5848 31.8253C48.2436 32.1666 48.0519 32.6293 48.0519 33.1119V36.7509C48.0519 37.2335 48.2436 37.6963 48.5848 38.0375C48.926 38.3787 49.3888 38.5704 49.8714 38.5704C50.3539 38.5704 50.8167 38.3787 51.1579 38.0375ZM53.5104 31.2924H57.1493C57.6319 31.2924 58.0947 31.1007 58.4359 30.7595C58.7771 30.4183 58.9688 29.9555 58.9688 29.4729C58.9688 28.9904 58.7771 28.5276 58.4359 28.1863C58.0947 27.8451 57.6319 27.6534 57.1493 27.6534H53.5104C53.0278 27.6534 52.565 27.8451 52.2238 28.1863C51.8826 28.5276 51.6909 28.9904 51.6909 29.4729C51.6909 29.9555 51.8826 30.4183 52.2238 30.7595C52.565 31.1007 53.0278 31.2924 53.5104 31.2924Z" fill="url(#paint0_linear_6430_240749)"/>
    <path fill-rule="evenodd" clip-rule="evenodd" d="M64 40C64 53.2548 53.2548 64 40 64C26.7452 64 16 53.2548 16 40C16 26.7452 26.7452 16 40 16C53.2548 16 64 26.7452 64 40ZM67 40C67 54.9117 54.9117 67 40 67C25.0883 67 13 54.9117 13 40C13 25.0883 25.0883 13 40 13C54.9117 13 67 25.0883 67 40ZM34 38C32.8954 38 32 38.8954 32 40C32 41.1046 32.8954 42 34 42H46C47.1046 42 48 41.1046 48 40C48 38.8954 47.1046 38 46 38H34Z" fill="url(#paint1_linear_6430_240749)"/>
    <defs>
        <linearGradient id="paint0_linear_6430_240749" x1="82.39" y1="-0.335815" x2="40.1567" y2="61.8455" gradientUnits="userSpaceOnUse">
            <stop stop-color="#23342E"/>
            <stop offset="1" stop-color="#212E28"/>
        </linearGradient>
        <linearGradient id="paint1_linear_6430_240749" x1="67" y1="13" x2="34.4739" y2="66.7547" gradientUnits="userSpaceOnUse">
            <stop stop-color="#60977E"/>
            <stop offset="1" stop-color="#244033"/>
        </linearGradient>
    </defs>
</svg>
