<svg width="80" height="80" viewBox="0 0 80 80" fill="none" xmlns="http://www.w3.org/2000/svg">
<path d="M30.1155 62C28.6189 62 27.2899 61.5285 26.1286 60.5855C24.9674 59.6425 24.2578 58.4514 23.9997 57.0121L19.0516 28.5147C18.8894 27.5804 19.1093 26.761 19.7113 26.0566C20.3134 25.3522 21.1118 25 22.1065 25H74.8935C75.8882 25 76.6866 25.3522 77.2887 26.0566C77.8907 26.761 78.1106 27.5804 77.9484 28.5147L73.0003 57.0121C72.7422 58.4514 72.0326 59.6425 70.8714 60.5855C69.7101 61.5285 68.3811 62 66.8845 62H30.1155Z" fill="url(#paint0_linear_1759_31767)"/>
<path d="M19.1725 71C17.5469 71 16.1036 70.4691 14.8424 69.4074C13.5812 68.3457 12.8104 67.0046 12.5302 65.3841L7.05771 32.7326C6.87825 31.6621 7.11734 30.7337 7.77496 29.9475C8.43259 29.1612 9.30464 28.7681 10.3911 28.7681H69.6089C70.6954 28.7681 71.5674 29.1612 72.225 29.9475C72.8827 30.7337 73.1217 31.6621 72.9423 32.7326L67.4698 65.3841C67.1896 67.0046 66.4188 68.3457 65.1576 69.4074C63.8964 70.4691 62.4531 71 60.8275 71H19.1725ZM10.2785 31.913L15.5699 64.8225C15.72 65.721 16.114 66.4511 16.752 67.0127C17.3899 67.5743 18.1592 67.8551 19.0599 67.8551H60.9401C61.8408 67.8551 62.6101 67.5743 63.248 67.0127C63.886 66.4511 64.28 65.721 64.4301 64.8225L69.7215 31.913H10.2785ZM30.9935 46.9638H49.0065C49.4531 46.9638 49.8274 46.8127 50.1295 46.5106C50.4316 46.2084 50.5826 45.834 50.5826 45.3874C50.5826 44.9407 50.4316 44.5676 50.1295 44.2681C49.8274 43.9686 49.4531 43.8188 49.0065 43.8188H30.9935C30.5469 43.8188 30.1726 43.9699 29.8705 44.272C29.5684 44.5742 29.4174 44.9486 29.4174 45.3952C29.4174 45.8419 29.5684 46.215 29.8705 46.5145C30.1726 46.814 30.5469 46.9638 30.9935 46.9638ZM12.9805 22.029C12.5339 22.029 12.1596 21.8779 11.8575 21.5758C11.5554 21.2736 11.4044 20.8992 11.4044 20.4526C11.4044 20.0059 11.5554 19.6329 11.8575 19.3333C12.1596 19.0338 12.5339 18.8841 12.9805 18.8841H67.0195C67.4661 18.8841 67.8404 19.0351 68.1425 19.3373C68.4446 19.6394 68.5956 20.0138 68.5956 20.4605C68.5956 20.9071 68.4446 21.2802 68.1425 21.5797C67.8404 21.8792 67.4661 22.029 67.0195 22.029H12.9805ZM21.987 12.1449C21.5404 12.1449 21.1661 11.9939 20.864 11.6917C20.5619 11.3896 20.4109 11.0152 20.4109 10.5685C20.4109 10.1219 20.5619 9.74879 20.864 9.44928C21.1661 9.14976 21.5404 9 21.987 9H58.013C58.4596 9 58.8339 9.15107 59.136 9.4532C59.4381 9.75534 59.5891 10.1297 59.5891 10.5764C59.5891 11.023 59.4381 11.3961 59.136 11.6957C58.8339 11.9952 58.4596 12.1449 58.013 12.1449H21.987Z" fill="url(#paint1_linear_1759_31767)"/>
<defs>
<linearGradient id="paint0_linear_1759_31767" x1="86.1596" y1="21.8511" x2="62.3674" y2="77.7096" gradientUnits="userSpaceOnUse">
<stop stop-color="#0E4923"/>
<stop offset="1" stop-color="#0B170B"/>
</linearGradient>
<linearGradient id="paint1_linear_1759_31767" x1="34.3535" y1="9" x2="68.9144" y2="92.6244" gradientUnits="userSpaceOnUse">
<stop stop-color="#5A6F62"/>
<stop offset="1" stop-color="#133720"/>
</linearGradient>
</defs>
</svg>
