<svg width="80" height="80" viewBox="0 0 80 80" fill="none" xmlns="http://www.w3.org/2000/svg">
<path fill-rule="evenodd" clip-rule="evenodd" d="M16.9996 15.5503C21.4397 12.5835 26.6599 11 32 11C39.1609 11 46.0284 13.8446 51.0919 18.9081C56.1554 23.9716 59 30.8392 59 38C59 43.3401 57.4165 48.5603 54.4497 53.0004C51.4829 57.4405 47.2661 60.9012 42.3325 62.9447C37.3989 64.9883 31.9701 65.523 26.7326 64.4812C21.4951 63.4394 16.6841 60.8679 12.9081 57.0919C9.13211 53.3159 6.56061 48.5049 5.51881 43.2674C4.47701 38.0299 5.0117 32.6011 7.05526 27.6675C9.09883 22.7339 12.5595 18.5171 16.9996 15.5503ZM19.1425 57.2426C22.9483 59.7855 27.4228 61.1428 32 61.1428C38.1379 61.1428 44.0243 58.7046 48.3645 54.3645C52.7046 50.0243 55.1429 44.1379 55.1429 38C55.1429 33.4228 53.7855 28.9483 51.2426 25.1425C48.6996 21.3367 45.0852 18.3704 40.8564 16.6188C36.6276 14.8672 31.9743 14.4089 27.4851 15.3018C22.9958 16.1948 18.8721 18.3989 15.6355 21.6355C12.399 24.8721 10.1948 28.9958 9.30184 33.485C8.40887 37.9743 8.86717 42.6276 10.6188 46.8564C12.3704 51.0852 15.3367 54.6996 19.1425 57.2426ZM21.2854 21.9645C24.457 19.8454 28.1856 18.7143 32 18.7143C37.1149 18.7143 42.0203 20.7462 45.6371 24.3629C49.2538 27.9797 51.2857 32.8851 51.2857 38C51.2857 41.8143 50.1546 45.543 48.0355 48.7146C45.9163 51.8861 42.9043 54.358 39.3803 55.8177C35.8563 57.2774 31.9786 57.6593 28.2375 56.9151C24.4965 56.171 21.0601 54.3342 18.3629 51.6371C15.6658 48.9399 13.829 45.5035 13.0849 41.7624C12.3407 38.0214 12.7226 34.1437 14.1823 30.6197C15.642 27.0957 18.1139 24.0837 21.2854 21.9645ZM30.6363 28.922C30.2746 29.2837 30.0714 29.7742 30.0714 30.2857V34.1429C30.0714 34.6543 30.2746 35.1449 30.6363 35.5066C30.998 35.8682 31.4885 36.0714 32 36.0714C32.5115 36.0714 33.002 35.8682 33.3637 35.5066C33.7254 35.1449 33.9286 34.6543 33.9286 34.1429V30.2857C33.9286 29.7742 33.7254 29.2837 33.3637 28.922C33.002 28.5603 32.5115 28.3571 32 28.3571C31.4885 28.3571 30.998 28.5603 30.6363 28.922ZM24.2857 39.9286H28.1429C28.6544 39.9286 29.1449 39.7254 29.5066 39.3637C29.8682 39.002 30.0714 38.5115 30.0714 38C30.0714 37.4885 29.8682 36.998 29.5066 36.6363C29.1449 36.2746 28.6544 36.0714 28.1429 36.0714H24.2857C23.7742 36.0714 23.2837 36.2746 22.922 36.6363C22.5603 36.998 22.3571 37.4885 22.3571 38C22.3571 38.5115 22.5603 39.002 22.922 39.3637C23.2837 39.7254 23.7742 39.9286 24.2857 39.9286ZM33.3637 47.078C33.7254 46.7163 33.9286 46.2258 33.9286 45.7143V41.8571C33.9286 41.3456 33.7254 40.8551 33.3637 40.4934C33.002 40.1318 32.5115 39.9286 32 39.9286C31.4885 39.9286 30.998 40.1318 30.6363 40.4934C30.2746 40.8551 30.0714 41.3456 30.0714 41.8571V45.7143C30.0714 46.2258 30.2746 46.7163 30.6363 47.078C30.998 47.4397 31.4885 47.6428 32 47.6428C32.5115 47.6428 33.002 47.4397 33.3637 47.078ZM35.8571 39.9286H39.7143C40.2258 39.9286 40.7163 39.7254 41.078 39.3637C41.4397 39.002 41.6429 38.5115 41.6429 38C41.6429 37.4885 41.4397 36.998 41.078 36.6363C40.7163 36.2746 40.2258 36.0714 39.7143 36.0714H35.8571C35.3457 36.0714 34.8551 36.2746 34.4934 36.6363C34.1318 36.998 33.9286 37.4885 33.9286 38C33.9286 38.5115 34.1318 39.002 34.4934 39.3637C34.8551 39.7254 35.3457 39.9286 35.8571 39.9286Z" fill="url(#paint0_linear_3056_35244)"/>
<path fill-rule="evenodd" clip-rule="evenodd" d="M32.9996 19.5503C37.4397 16.5835 42.6599 15 48 15C55.1609 15 62.0284 17.8446 67.0919 22.9081C72.1554 27.9716 75 34.8392 75 42C75 47.3401 73.4165 52.5603 70.4497 57.0004C67.4829 61.4405 63.2661 64.9012 58.3325 66.9447C53.3989 68.9883 47.9701 69.523 42.7326 68.4812C37.4951 67.4394 32.6841 64.8679 28.9081 61.0919C25.1321 57.3159 22.5606 52.5049 21.5188 47.2674C20.477 42.0299 21.0117 36.6011 23.0553 31.6675C25.0988 26.7339 28.5595 22.5171 32.9996 19.5503ZM35.1425 61.2426C38.9483 63.7855 43.4228 65.1428 48 65.1428C54.1379 65.1428 60.0243 62.7046 64.3645 58.3645C68.7046 54.0243 71.1429 48.1379 71.1429 42C71.1429 37.4228 69.7855 32.9483 67.2426 29.1425C64.6996 25.3367 61.0852 22.3704 56.8564 20.6188C52.6276 18.8672 47.9743 18.4089 43.4851 19.3018C38.9958 20.1948 34.8721 22.3989 31.6355 25.6355C28.399 28.8721 26.1948 32.9958 25.3018 37.485C24.4089 41.9743 24.8672 46.6276 26.6188 50.8564C28.3704 55.0852 31.3367 58.6996 35.1425 61.2426ZM37.2854 25.9645C40.457 23.8454 44.1856 22.7143 48 22.7143C53.1149 22.7143 58.0203 24.7462 61.6371 28.3629C65.2538 31.9797 67.2857 36.8851 67.2857 42C67.2857 45.8143 66.1546 49.543 64.0355 52.7146C61.9163 55.8861 58.9043 58.358 55.3803 59.8177C51.8563 61.2774 47.9786 61.6593 44.2375 60.9151C40.4965 60.171 37.0601 58.3342 34.3629 55.6371C31.6658 52.9399 29.829 49.5035 29.0849 45.7624C28.3407 42.0214 28.7226 38.1437 30.1823 34.6197C31.642 31.0957 34.1139 28.0837 37.2854 25.9645ZM46.6363 32.922C46.2746 33.2837 46.0714 33.7742 46.0714 34.2857V38.1429C46.0714 38.6543 46.2746 39.1449 46.6363 39.5066C46.998 39.8682 47.4885 40.0714 48 40.0714C48.5115 40.0714 49.002 39.8682 49.3637 39.5066C49.7254 39.1449 49.9286 38.6543 49.9286 38.1429V34.2857C49.9286 33.7742 49.7254 33.2837 49.3637 32.922C49.002 32.5603 48.5115 32.3571 48 32.3571C47.4885 32.3571 46.998 32.5603 46.6363 32.922ZM40.2857 43.9286H44.1429C44.6544 43.9286 45.1449 43.7254 45.5066 43.3637C45.8682 43.002 46.0714 42.5115 46.0714 42C46.0714 41.4885 45.8682 40.998 45.5066 40.6363C45.1449 40.2746 44.6544 40.0714 44.1429 40.0714H40.2857C39.7742 40.0714 39.2837 40.2746 38.922 40.6363C38.5603 40.998 38.3571 41.4885 38.3571 42C38.3571 42.5115 38.5603 43.002 38.922 43.3637C39.2837 43.7254 39.7742 43.9286 40.2857 43.9286ZM49.3637 51.078C49.7254 50.7163 49.9286 50.2258 49.9286 49.7143V45.8571C49.9286 45.3456 49.7254 44.8551 49.3637 44.4934C49.002 44.1318 48.5115 43.9286 48 43.9286C47.4885 43.9286 46.998 44.1318 46.6363 44.4934C46.2746 44.8551 46.0714 45.3456 46.0714 45.8571V49.7143C46.0714 50.2258 46.2746 50.7163 46.6363 51.078C46.998 51.4397 47.4885 51.6428 48 51.6428C48.5115 51.6428 49.002 51.4397 49.3637 51.078ZM51.8571 43.9286H55.7143C56.2258 43.9286 56.7163 43.7254 57.078 43.3637C57.4397 43.002 57.6429 42.5115 57.6429 42C57.6429 41.4885 57.4397 40.998 57.078 40.6363C56.7163 40.2746 56.2258 40.0714 55.7143 40.0714H51.8571C51.3457 40.0714 50.8551 40.2746 50.4934 40.6363C50.1318 40.998 49.9286 41.4885 49.9286 42C49.9286 42.5115 50.1318 43.002 50.4934 43.3637C50.8551 43.7254 51.3457 43.9286 51.8571 43.9286Z" fill="url(#paint1_linear_3056_35244)"/>
<defs>
<linearGradient id="paint0_linear_3056_35244" x1="66.4681" y1="6.40426" x2="21.7029" y2="72.3132" gradientUnits="userSpaceOnUse">
<stop stop-color="#0E4923"/>
<stop offset="1" stop-color="#0B170B"/>
</linearGradient>
<linearGradient id="paint1_linear_3056_35244" x1="43.3801" y1="15" x2="74.8128" y2="86.4459" gradientUnits="userSpaceOnUse">
<stop stop-color="#5A6F62"/>
<stop offset="1" stop-color="#133720"/>
</linearGradient>
</defs>
</svg>
