<svg xmlns="http://www.w3.org/2000/svg" width="232" height="206" viewBox="0 0 232 206" fill="none">
    <path fill-rule="evenodd" clip-rule="evenodd" d="M19.5994 206H0V109.592L116.856 179.288L98.5942 190.105L23.276 145.24C22.5598 144.87 21.6047 144.87 20.8886 145.24C20.1724 145.73 19.6945 146.592 19.6945 147.451L19.5994 206ZM232 148.59V172.054L178.09 204.118V64.9711L196.353 75.7883V165.521C196.353 166.382 196.83 167.242 197.546 167.611C198.382 168.103 199.217 168.103 199.934 167.611L232 148.59ZM127.547 0H164.786L51.3261 67.552V45.9176L126.644 0.929123C127.024 0.73333 127.337 0.399065 127.547 0ZM0 0V101.725L19.6945 113.525V0H0ZM82.2713 0H114.931L98.7137 9.77916L82.2713 0ZM26.3796 0H44.6418V75.1731C44.6418 76.1574 45.1189 76.8942 45.8351 77.3864C46.5513 77.7555 47.5064 77.7555 48.2225 77.3864L148.488 17.6464L232 67.3511V89.1298L202.44 71.4863C202.44 71.4863 202.082 71.2402 201.843 71.1172L174.986 55.2598C174.27 54.7676 173.316 54.7676 172.6 55.2598C171.883 55.6289 171.406 56.4887 171.406 57.35V176.584L121.983 206H85.3381L99.907 197.359L126.644 181.378C127.024 181.117 127.337 180.752 127.547 180.34C127.733 179.974 127.838 179.57 127.838 179.166C127.838 178.305 127.36 177.445 126.644 177.076L26.3796 117.459V0ZM44.5354 206L44.6418 166.013L26.3796 155.073L26.2923 206H44.5354ZM135.37 206H171.406V184.574L135.37 206ZM232 119.04L203.037 136.265V157.899L232 140.691V119.04ZM232 59.4365V35.899L174.867 1.91196L155.172 13.712L232 59.4365ZM148.13 41.3695C148.846 40.8773 149.801 40.8773 150.517 41.3695C151.233 41.8602 151.711 42.5984 151.711 43.4582V164.292C151.711 165.151 151.233 166.013 150.517 166.38C150.159 166.626 149.681 166.75 149.324 166.75C148.846 166.75 148.13 166.38 148.13 166.38L46.6707 106.027C45.9546 105.658 45.4774 104.796 45.4774 104.06V103.813C45.4774 102.954 45.9546 102.215 46.6707 101.723L148.13 41.3695Z" fill="url(#paint0_linear_2508_12509)"/>
    <defs>
        <linearGradient id="paint0_linear_2508_12509" x1="231.81" y1="34.6914" x2="60.5016" y2="205.86" gradientUnits="userSpaceOnUse">
            <stop stop-color="#3D6149"/>
            <stop offset="1" stop-color="#163922"/>
        </linearGradient>
    </defs>
</svg>
