<svg width="102" height="92" viewBox="0 0 102 92" fill="none" xmlns="http://www.w3.org/2000/svg">
    <g style="mix-blend-mode:screen">
        <path d="M121.129 45.4239L10.5724 -17.7931C9.91475 -18.1318 9.38549 -18.058 8.53271 -17.5472L8.55825 -17.5697L0.68676 -13.0686C0.1724 -12.7137 0.0312164 -12.1769 0 -11.9289V114.392L0.00567571 114.358C-0.018446 115.213 0.194393 115.674 0.877606 116.099L9.11234 120.809C9.70546 121.062 10.0268 121.024 10.5973 120.712L121.196 57.5388C121.791 57.1643 121.996 56.6886 121.999 55.7724V46.7919C121.979 46.5214 121.783 45.7654 121.129 45.4239ZM75.0896 40.8251L93.823 51.5376L75.0875 62.25L75.0896 40.8251ZM18.9859 72.8022L37.681 83.4858L18.9859 94.1757V72.8022ZM37.6817 19.4347L19.0016 30.131V8.75395L37.6817 19.4347ZM19.655 51.4624L56.0887 30.6292V72.2956L19.655 51.4624Z" fill="#139F6D"/>
        <path d="M46.9125 78.2076L37.7214 83.509L9.75938 67.5289L9.67495 120.957C9.45927 120.961 9.33228 120.903 9.11234 120.808L0.877606 116.1C0.194393 115.675 -0.018446 115.213 0.00567571 114.358L0 114.393V51.3837L46.9125 78.2076ZM121.759 46.1146L75.086 72.7453L75.0896 40.7907L65.8467 35.5399L65.8304 89.1469L121.197 57.5388C121.791 57.1643 121.997 56.6886 122 55.7716V46.7919C121.977 46.4961 121.884 46.3261 121.759 46.1146ZM10.5724 -17.7931C9.91475 -18.1318 9.38549 -18.058 8.53271 -17.5472L8.55825 -17.5697L0.68676 -13.0686C0.474631 -12.9175 0.315002 -12.7545 0.202906 -12.5627L46.9147 14.1474L18.981 30.1429L19.0016 40.6741L65.9141 13.8509L10.5724 -17.7931Z" fill="#088457"/>
        <path d="M121.813 46.0929L75.086 72.7376L75.0874 62.2423L103.064 46.2454L56.1519 19.4229L65.9091 13.8432L121.128 45.417C121.457 45.6193 121.676 45.8343 121.813 46.0929ZM0.203616 -12.5703C0.0986154 -12.3897 0.0312164 -12.1846 0 -11.9365V51.3753L9.75867 56.9796V3.45966L37.7449 19.4285L46.9154 14.1391L0.203616 -12.5703ZM18.92 104.802L18.9852 72.7945L9.75867 67.5212L9.68062 120.994C9.94313 120.99 10.217 120.909 10.5313 120.757L65.8332 89.1372V77.9779L18.92 104.802Z" fill="#70C59E"/>
    </g>
</svg>
