<svg width="24" height="24" viewBox="0 0 24 24" fill="none" xmlns="http://www.w3.org/2000/svg">
    <circle cx="12" cy="12" r="11.5" fill="#2E2F2F" stroke="#383C3A"/>
    <path fill-rule="evenodd" clip-rule="evenodd" d="M7.38462 6H16.6154C16.9826 6 17.3348 6.14588 17.5945 6.40554C17.8541 6.66521 18 7.01739 18 7.38462V16.6154C18 16.9826 17.8541 17.3348 17.5945 17.5945C17.3348 17.8541 16.9826 18 16.6154 18H7.38462C7.01739 18 6.66521 17.8541 6.40554 17.5945C6.14588 17.3348 6 16.9826 6 16.6154V7.38462C6 7.01739 6.14588 6.66521 6.40554 6.40554C6.66521 6.14588 7.01739 6 7.38462 6ZM15.6923 14.3077H11.0769C10.9545 14.3077 10.8371 14.3563 10.7506 14.4429C10.664 14.5294 10.6154 14.6468 10.6154 14.7692C10.6154 14.8916 10.664 15.009 10.7506 15.0956C10.8371 15.1821 10.9545 15.2308 11.0769 15.2308H15.6923C15.8147 15.2308 15.9321 15.1821 16.0187 15.0956C16.1052 15.009 16.1538 14.8916 16.1538 14.7692C16.1538 14.6468 16.1052 14.5294 16.0187 14.4429C15.9321 14.3563 15.8147 14.3077 15.6923 14.3077ZM10.7506 11.6736C10.664 11.7602 10.6154 11.8776 10.6154 12C10.6154 12.1224 10.664 12.2398 10.7506 12.3264C10.8371 12.4129 10.9545 12.4615 11.0769 12.4615H15.6923C15.8147 12.4615 15.9321 12.4129 16.0187 12.3264C16.1052 12.2398 16.1538 12.1224 16.1538 12C16.1538 11.8776 16.1052 11.7602 16.0187 11.6736C15.9321 11.5871 15.8147 11.5385 15.6923 11.5385H11.0769C10.9545 11.5385 10.8371 11.5871 10.7506 11.6736ZM11.0769 9.69231H15.6923C15.8147 9.69231 15.9321 9.64368 16.0187 9.55713C16.1052 9.47057 16.1538 9.35318 16.1538 9.23077C16.1538 9.10836 16.1052 8.99097 16.0187 8.90441C15.9321 8.81786 15.8147 8.76923 15.6923 8.76923H11.0769C10.9545 8.76923 10.8371 8.81786 10.7506 8.90441C10.664 8.99097 10.6154 9.10836 10.6154 9.23077C10.6154 9.35318 10.664 9.47057 10.7506 9.55713C10.8371 9.64368 10.9545 9.69231 11.0769 9.69231ZM8.22813 8.83592C8.07049 8.68116 7.81495 8.68116 7.6573 8.83592C7.49965 8.99066 7.49965 9.24158 7.65727 9.39631L8.16216 9.89203C8.19962 9.92882 8.24411 9.95801 8.29309 9.97792C8.34206 9.99784 8.39456 10.0081 8.44758 10.0081C8.5006 10.0081 8.55309 9.99784 8.60207 9.97792C8.65104 9.95801 8.69553 9.92882 8.733 9.89203L9.94926 8.69797C10.1069 8.54321 10.1069 8.29229 9.94926 8.13755C9.79164 7.98277 9.5361 7.98282 9.37845 8.13755L8.44761 9.05142L8.22813 8.83592ZM8.22813 11.8203C8.07049 11.6655 7.81495 11.6655 7.6573 11.8203C7.49965 11.975 7.49965 12.226 7.65727 12.3807L8.16216 12.8764C8.19962 12.9132 8.24411 12.9424 8.29309 12.9623C8.34206 12.9822 8.39456 12.9925 8.44758 12.9925C8.5006 12.9925 8.55309 12.9822 8.60207 12.9623C8.65104 12.9424 8.69553 12.9132 8.733 12.8764L9.94926 11.6823C10.1069 11.5276 10.1069 11.2767 9.94926 11.1219C9.79164 10.9671 9.5361 10.9672 9.37845 11.1219L8.44761 12.0358L8.22813 11.8203ZM7.6573 14.5898C7.81495 14.4351 8.07049 14.4351 8.22813 14.5898L8.44761 14.8053L9.37845 13.8915C9.5361 13.7367 9.79164 13.7367 9.94926 13.8915C10.1069 14.0462 10.1069 14.2971 9.94926 14.4519L8.733 15.6459C8.69553 15.6827 8.65104 15.7119 8.60207 15.7318C8.55309 15.7517 8.5006 15.762 8.44758 15.762C8.39456 15.762 8.34206 15.7517 8.29309 15.7318C8.24411 15.7119 8.19962 15.6827 8.16216 15.6459L7.65727 15.1502C7.49965 14.9955 7.49965 14.7446 7.6573 14.5898Z" fill="#139F6D"/>
</svg>
