<svg width="24" height="24" viewBox="0 0 24 24" fill="none" xmlns="http://www.w3.org/2000/svg">
<g clip-path="url(#clip0_28_3491)">
<circle cx="12" cy="12" r="11.5" fill="#2E2F2F" stroke="#383C3A"/>
<path d="M20.9 11.3006L8.21323 4.02382C8.13776 3.98483 8.07702 3.99332 7.97916 4.05212L7.98209 4.04954L7.07881 4.56765C7.01978 4.60849 7.00358 4.67028 7 4.69883V19.2394L7.00065 19.2354C6.99788 19.3338 7.02231 19.3869 7.10071 19.4359L8.04568 19.978C8.11374 20.0072 8.15062 20.0028 8.21608 19.9669L20.9078 12.6951C20.976 12.652 20.9996 12.5972 20.9999 12.4918V11.4581C20.9976 11.4269 20.9751 11.3399 20.9 11.3006ZM15.6168 10.7712L17.7666 12.0043L15.6166 13.2374L15.6168 10.7712ZM9.17871 14.452L11.324 15.6818L9.17871 16.9123V14.452ZM11.3241 8.30904L9.18051 9.54026V7.07959L11.3241 8.30904ZM9.25549 11.9957L13.4364 9.5976V14.3937L9.25549 11.9957Z" fill="#139F6D"/>
<path d="M12.3834 15.0743L11.3287 15.6845L8.11993 13.845L8.11024 19.995C8.08549 19.9955 8.07092 19.9889 8.04568 19.978L7.10071 19.436C7.02231 19.3871 6.99788 19.3339 7.00065 19.2355L7 19.2394V11.9866L12.3834 15.0743ZM20.9724 11.3801L15.6164 14.4455L15.6168 10.7673L14.5562 10.1629L14.5543 16.3335L20.9078 12.6951C20.9761 12.652 20.9997 12.5972 21 12.4917V11.4581C20.9974 11.424 20.9866 11.4044 20.9724 11.3801ZM8.21323 4.02382C8.13776 3.98483 8.07702 3.99332 7.97916 4.05212L7.98209 4.04954L7.07881 4.56765C7.05447 4.58504 7.03615 4.6038 7.02328 4.62588L12.3837 7.70042L9.17815 9.54163L9.18051 10.7538L14.5639 7.66629L8.21323 4.02382Z" fill="#088457"/>
<path d="M20.9786 11.3776L15.6164 14.4446L15.6166 13.2365L18.827 11.3952L13.4437 8.30767L14.5633 7.66541L20.8999 11.2998C20.9377 11.3231 20.9629 11.3478 20.9786 11.3776ZM7.02337 4.625C7.01132 4.64579 7.00358 4.6694 7 4.69795V11.9856L8.11985 12.6307V6.47018L11.3314 8.30832L12.3837 7.69946L7.02337 4.625ZM9.17114 18.1355L9.17863 14.4512L8.11985 13.8442L8.11089 19.9993C8.14101 19.9988 8.17244 19.9895 8.20851 19.972L14.5546 16.3323V15.0478L9.17114 18.1355Z" fill="#70C59E"/>
</g>
<defs>
<clipPath id="clip0_28_3491">
<rect width="24" height="24" rx="12" fill="white"/>
</clipPath>
</defs>
</svg>
