<svg width="35" height="41" viewBox="0 0 35 41" fill="none" xmlns="http://www.w3.org/2000/svg">
<path fill-rule="evenodd" clip-rule="evenodd" d="M33.8126 18.595C33.8111 18.5837 33.8083 18.5725 33.8052 18.5603L33.8029 18.5507C33.8009 18.5457 33.7994 18.5406 33.798 18.5356C33.7965 18.5306 33.795 18.5255 33.7931 18.5205C33.7931 18.5205 33.7925 18.5182 33.7917 18.5154C33.791 18.513 33.7901 18.5103 33.7892 18.5084C33.7657 18.438 33.7266 18.3596 33.6679 18.2912C33.6679 18.2912 33.666 18.2871 33.664 18.2871C33.6328 18.2509 33.5956 18.2187 33.5526 18.1946C33.5483 18.1902 33.543 18.1869 33.5382 18.1839C33.5364 18.1827 33.5346 18.1816 33.533 18.1805L27.1682 14.4002L18.4589 9.22769L18.3122 9.14118L18.2634 9.111L3.32556 0.453408H3.32165C3.30797 0.445361 3.20237 0.397076 3.10852 0.382993C3.06354 0.376957 3.02052 0.374945 3.02052 0.374945H2.96382C2.8851 0.380467 2.75729 0.465137 2.72861 0.484131C2.72595 0.485896 2.7233 0.48761 2.7233 0.48761C2.35182 0.707887 1.98033 0.928667 1.60885 1.14945C1.23733 1.37024 0.865673 1.59113 0.494156 1.81142C0.490007 1.81484 0.485506 1.81825 0.480803 1.82182C0.474423 1.82666 0.467667 1.83178 0.460914 1.83757C0.451137 1.84562 0.443316 1.85367 0.433539 1.86373C0.425717 1.86976 0.417896 1.8758 0.41203 1.88586C0.406163 1.8919 0.400297 1.89994 0.394431 1.90799C0.357279 1.95024 0.331858 1.99651 0.312305 2.03876C0.304483 2.05284 0.298617 2.06693 0.294706 2.08101C0.282974 2.11924 0.275152 2.15344 0.269286 2.17959C0.267331 2.19166 0.265375 2.20575 0.26342 2.21983L0 38.0155H0.00195539C-0.00195539 38.259 0.0606172 38.4139 0.219004 38.5406C0.227701 38.5466 0.236398 38.5528 0.245195 38.5592C0.260132 38.5699 0.275355 38.5808 0.291353 38.5909L2.57134 39.9449L2.57721 39.9489C2.58894 39.955 2.60067 39.959 2.6124 39.963C2.61491 39.9656 2.61822 39.9665 2.62131 39.9674C2.62303 39.9679 2.62609 39.9691 2.62609 39.9691C2.63294 39.9711 2.64027 39.9731 2.6476 39.9751C2.65493 39.9771 2.66227 39.9791 2.66911 39.9811C2.674 39.9831 2.67889 39.9847 2.68378 39.9862C2.68866 39.9877 2.69355 39.9892 2.69844 39.9912C2.70311 39.9912 2.70777 39.9921 2.71265 39.9931C2.71799 39.9941 2.72359 39.9952 2.72973 39.9952C2.7395 39.9972 2.74928 39.9972 2.75906 39.9972H2.76689C2.76689 39.9972 2.78449 40.0013 2.79426 40.0013C2.81022 40.0013 2.82748 39.9999 2.84392 39.9972H2.85487C2.85487 39.9972 2.85683 39.9952 2.85878 39.9952C2.86074 39.9952 2.86074 39.9952 2.86269 39.9932C2.86856 39.9932 2.87443 39.9932 2.88029 39.9892C2.89007 39.9872 2.89985 39.9852 2.90962 39.9811C2.92331 39.9811 2.937 39.9751 2.95069 39.9691C2.96437 39.965 2.97806 39.959 2.99175 39.953C3.01717 39.9409 3.04259 39.9268 3.06801 39.9127L9.4817 36.1063L33.5545 21.822C33.7755 21.6771 33.8205 21.482 33.8205 21.2305V18.6513C33.8185 18.6312 33.8165 18.611 33.8126 18.595ZM5.43404 7.9421V14.0843L10.495 11.0887L5.43404 7.9421ZM5.71341 19.9982L15.7916 26.1472L15.4593 14.2091L5.71341 19.9982ZM5.42867 32.4441V26.2814L10.5387 29.3616L5.42867 32.4441ZM20.8836 23.5098L26.2487 20.2494L20.8836 17.1223V23.5098Z" fill="#3BD171"/>
<path fill-rule="evenodd" clip-rule="evenodd" d="M33.9428 18.2367C34.0037 18.2617 34.1009 18.3741 34.1009 18.3741C34.2049 18.4988 34.2764 18.6509 34.3077 18.8118V21.4743C34.3077 21.7492 34.2712 22.0617 33.9307 22.2867L3.44174 40.3743C3.40522 40.3993 3.38094 40.4117 3.34442 40.4242C3.33834 40.4304 3.32008 40.4367 3.30182 40.4429C3.28356 40.4492 3.26537 40.4554 3.25928 40.4617H3.19849H3.18632C3.14987 40.4867 3.089 40.4867 3.05256 40.4867C3.02012 40.4867 2.9931 40.4811 2.97506 40.4774C2.96608 40.4756 2.95933 40.4742 2.95525 40.4742C2.9352 40.4742 2.91509 40.4704 2.89705 40.467C2.88228 40.4643 2.86892 40.4617 2.85793 40.4617H2.80931L2.78497 40.4492C2.77287 40.4492 2.77287 40.4367 2.76069 40.4367C2.74852 40.4367 2.712 40.4242 2.712 40.4242C2.69983 40.4117 2.66338 40.3868 2.66338 40.3868L0.413525 39.0492L0.352658 39.0117C0.109487 38.8243 0.0121734 38.5992 0.0121734 38.2992C0.0121734 38.2867 0 38.2617 0 38.2617V2.09927C0 2.08676 0.0121734 2.0242 0.0121734 2.0242C0.0243468 1.96179 0.0365202 1.92426 0.0486194 1.87421C0.0486194 1.86169 0.0851397 1.79929 0.0851397 1.78677C0.0973131 1.76175 0.133759 1.68668 0.194552 1.61176L0.267518 1.53668C0.267518 1.53668 0.270858 1.53317 0.277539 1.52814C0.283626 1.52356 0.292459 1.51761 0.304038 1.51166L0.364831 1.47427L2.57824 0.161713C2.59041 0.1492 2.61476 0.1492 2.62686 0.136688C2.64876 0.119751 2.6878 0.0927429 2.73523 0.0681763C2.79335 0.0381165 2.86394 0.0117188 2.9309 0.0117188H3.00386H3.12552C3.22284 0.024231 3.33225 0.0617676 3.39304 0.086792C3.40522 0.0991516 3.42956 0.111664 3.42956 0.111664L33.9185 18.2118L33.9428 18.2367ZM21.38 25.7367L33.3105 18.6618L18.5098 9.87424L16.5032 11.0742L29.0661 18.5367C29.1216 18.5693 29.1564 18.6126 29.174 18.6631C29.1833 18.69 29.1877 18.7188 29.1877 18.7492C29.1877 18.816 29.1714 18.8717 29.1351 18.9163C29.1172 18.9383 29.0943 18.9576 29.0661 18.9743L21.38 23.5367V25.7367ZM21.38 17.8117V22.7243L25.5271 20.2617L21.38 17.8117ZM2.88228 0.786713C2.87011 0.786713 2.85793 0.799225 2.85793 0.799225L1.0337 1.88672L13.5966 9.34918C13.6326 9.36765 13.6627 9.39832 13.684 9.43524C13.7058 9.47308 13.7183 9.51733 13.7183 9.56174C13.7183 9.64917 13.6696 9.73676 13.5966 9.77429L5.92266 14.3492V16.5492L17.8288 9.47415L3.089 0.724152L3.01604 0.711792C2.99177 0.724152 2.94307 0.749176 2.88228 0.786713ZM5.92266 8.62424V13.5243L10.0454 11.0742L5.92266 8.62424ZM12.5993 9.56174L0.693217 2.48669V20.0242L2.69983 21.2242V6.32428C2.69983 6.23669 2.74852 6.16177 2.82149 6.11172C2.89445 6.06168 2.99177 6.06168 3.06473 6.11172L10.7508 10.6743L12.5993 9.56174ZM2.82149 24.4493C2.89445 24.4117 2.99177 24.4117 3.06473 24.4493L10.7387 29.0117L12.5993 27.9117L0.693217 20.8242V38.2617C0.681043 38.3992 0.693217 38.4117 0.766183 38.4492L2.67555 39.5868L2.69983 24.6742C2.69983 24.5868 2.74852 24.4992 2.82149 24.4493ZM5.92266 31.8617L10.0576 29.4117L5.92266 26.9618V31.8617ZM3.3566 39.6367L18.1572 30.8368V28.4492L5.58218 35.9117C5.50921 35.9617 5.42407 35.9617 5.33893 35.9117C5.26597 35.8618 5.21727 35.7867 5.21727 35.6993L5.24162 26.5617L3.38094 25.4492L3.3566 39.6367ZM18.1572 15.5117C18.1572 15.4242 18.2058 15.3367 18.2788 15.2992C18.3518 15.2491 18.449 15.2491 18.522 15.2992L21.2583 16.9117C21.2827 16.9243 21.3192 16.9493 21.3192 16.9493L26.2081 19.8617L28.0689 18.7492L15.8222 11.4743L5.60645 17.5493C5.53349 17.5868 5.43617 17.5868 5.36321 17.5493C5.29024 17.4992 5.24162 17.4243 5.24162 17.3242V8.21179L3.38094 7.11179V21.6243L13.5966 27.6867C13.6696 27.7243 13.7183 27.8117 13.7183 27.8993C13.7183 27.9403 13.7075 27.9814 13.6886 28.0186C13.6672 28.0606 13.6353 28.0977 13.5966 28.1242L10.8724 29.7493L5.91049 32.6867V34.9118L18.1572 27.6367V15.5117ZM33.578 21.6867C33.6145 21.6617 33.6267 21.6368 33.6267 21.4743V19.2868L21.0638 26.7242C20.9908 26.7743 20.9057 26.7743 20.8205 26.7242C20.7476 26.6867 20.699 26.5992 20.699 26.5117V17.3867L18.8382 16.2867V30.4367L33.578 21.6867ZM15.7857 13.8867C15.8586 13.8366 15.9559 13.8366 16.0289 13.8867C16.1019 13.9366 16.1506 14.0117 16.1506 14.0991V26.3867C16.1506 26.4741 16.1019 26.5617 16.0289 26.5991C15.9925 26.6241 15.9438 26.6366 15.9073 26.6366C15.8586 26.6366 15.7857 26.5991 15.7857 26.5991L5.44835 20.4617C5.37538 20.4242 5.32676 20.3366 5.32676 20.2617V20.2366C5.32676 20.1492 5.37538 20.0741 5.44835 20.0241L15.7857 13.8867ZM15.4695 14.8866L6.4456 20.2491L15.4695 25.5992V14.8866Z" fill="#161815"/>
</svg>
