<svg width="24" height="24" viewBox="0 0 24 24" fill="none" xmlns="http://www.w3.org/2000/svg">
    <circle cx="12" cy="12" r="11.5" fill="#2E2F2F" stroke="#383C3A"/>
    <path d="M16.6154 6H7.38462C7.01739 6 6.66521 6.14588 6.40554 6.40554C6.14588 6.66521 6 7.01739 6 7.38462V16.6154C6 16.9826 6.14588 17.3348 6.40554 17.5945C6.66521 17.8541 7.01739 18 7.38462 18H16.6154C16.9826 18 17.3348 17.8541 17.5945 17.5945C17.8541 17.3348 18 16.9826 18 16.6154V7.38462C18 7.01739 17.8541 6.66521 17.5945 6.40554C17.3348 6.14588 16.9826 6 16.6154 6ZM8.30769 11.0769H9.23077C9.35318 11.0769 9.47057 11.1255 9.55713 11.2121C9.64368 11.2987 9.69231 11.4161 9.69231 11.5385V12.4615C9.69231 12.5839 9.64368 12.7013 9.55713 12.7879C9.47057 12.8745 9.35318 12.9231 9.23077 12.9231H8.30769C8.18528 12.9231 8.06789 12.8745 7.98134 12.7879C7.89478 12.7013 7.84615 12.5839 7.84615 12.4615V11.5385C7.84615 11.4161 7.89478 11.2987 7.98134 11.2121C8.06789 11.1255 8.18528 11.0769 8.30769 11.0769ZM7.84615 9.69231V8.76923C7.84615 8.64682 7.89478 8.52943 7.98134 8.44287C8.06789 8.35632 8.18528 8.30769 8.30769 8.30769H9.23077C9.35318 8.30769 9.47057 8.35632 9.55713 8.44287C9.64368 8.52943 9.69231 8.64682 9.69231 8.76923V9.69231C9.69231 9.81472 9.64368 9.93211 9.55713 10.0187C9.47057 10.1052 9.35318 10.1538 9.23077 10.1538H8.30769C8.18528 10.1538 8.06789 10.1052 7.98134 10.0187C7.89478 9.93211 7.84615 9.81472 7.84615 9.69231ZM8.30769 13.8462H9.23077C9.35318 13.8462 9.47057 13.8948 9.55713 13.9813C9.64368 14.0679 9.69231 14.1853 9.69231 14.3077V15.2308C9.69231 15.3532 9.64368 15.4706 9.55713 15.5571C9.47057 15.6437 9.35318 15.6923 9.23077 15.6923H8.30769C8.18528 15.6923 8.06789 15.6437 7.98134 15.5571C7.89478 15.4706 7.84615 15.3532 7.84615 15.2308V14.3077C7.84615 14.1853 7.89478 14.0679 7.98134 13.9813C8.06789 13.8948 8.18528 13.8462 8.30769 13.8462ZM11.0769 14.3077H15.6923C15.8147 14.3077 15.9321 14.3563 16.0187 14.4429C16.1052 14.5294 16.1538 14.6468 16.1538 14.7692C16.1538 14.8916 16.1052 15.009 16.0187 15.0956C15.9321 15.1821 15.8147 15.2308 15.6923 15.2308H11.0769C10.9545 15.2308 10.8371 15.1821 10.7506 15.0956C10.664 15.009 10.6154 14.8916 10.6154 14.7692C10.6154 14.6468 10.664 14.5294 10.7506 14.4429C10.8371 14.3563 10.9545 14.3077 11.0769 14.3077ZM10.6154 12C10.6154 11.8776 10.664 11.7602 10.7506 11.6736C10.8371 11.5871 10.9545 11.5385 11.0769 11.5385H15.6923C15.8147 11.5385 15.9321 11.5871 16.0187 11.6736C16.1052 11.7602 16.1538 11.8776 16.1538 12C16.1538 12.1224 16.1052 12.2398 16.0187 12.3264C15.9321 12.4129 15.8147 12.4615 15.6923 12.4615H11.0769C10.9545 12.4615 10.8371 12.4129 10.7506 12.3264C10.664 12.2398 10.6154 12.1224 10.6154 12ZM15.6923 9.69231H11.0769C10.9545 9.69231 10.8371 9.64368 10.7506 9.55713C10.664 9.47057 10.6154 9.35318 10.6154 9.23077C10.6154 9.10836 10.664 8.99097 10.7506 8.90441C10.8371 8.81786 10.9545 8.76923 11.0769 8.76923H15.6923C15.8147 8.76923 15.9321 8.81786 16.0187 8.90441C16.1052 8.99097 16.1538 9.10836 16.1538 9.23077C16.1538 9.35318 16.1052 9.47057 16.0187 9.55713C15.9321 9.64368 15.8147 9.69231 15.6923 9.69231Z" fill="#798180"/>
</svg>
