<svg width="24" height="24" viewBox="0 0 24 24" fill="none" xmlns="http://www.w3.org/2000/svg">
    <path fill-rule="evenodd" clip-rule="evenodd" d="M12 24C18.6274 24 24 18.6274 24 12C24 5.37258 18.6274 0 12 0C5.37258 0 0 5.37258 0 12C0 18.6274 5.37258 24 12 24ZM9.89028 17.0344C10.0394 17.1781 10.2241 17.25 10.4444 17.25H18.2222C18.4426 17.25 18.6273 17.1781 18.7764 17.0344C18.9255 16.8906 19 16.7125 19 16.5C19 16.2875 18.9255 16.1094 18.7764 15.9656C18.6273 15.8219 18.4426 15.75 18.2222 15.75H10.4444C10.2241 15.75 10.0394 15.8219 9.89028 15.9656C9.7412 16.1094 9.66667 16.2875 9.66667 16.5C9.66667 16.7125 9.7412 16.8906 9.89028 17.0344ZM9.89028 12.5344C10.0394 12.6781 10.2241 12.75 10.4444 12.75H18.2222C18.4426 12.75 18.6273 12.6781 18.7764 12.5344C18.9255 12.3906 19 12.2125 19 12C19 11.7875 18.9255 11.6094 18.7764 11.4656C18.6273 11.3219 18.4426 11.25 18.2222 11.25H10.4444C10.2241 11.25 10.0394 11.3219 9.89028 11.4656C9.7412 11.6094 9.66667 11.7875 9.66667 12C9.66667 12.2125 9.7412 12.3906 9.89028 12.5344ZM9.89028 8.03438C10.0394 8.17813 10.2241 8.25 10.4444 8.25H18.2222C18.4426 8.25 18.6273 8.17813 18.7764 8.03438C18.9255 7.89062 19 7.7125 19 7.5C19 7.2875 18.9255 7.10938 18.7764 6.96562C18.6273 6.82188 18.4426 6.75 18.2222 6.75H10.4444C10.2241 6.75 10.0394 6.82188 9.89028 6.96562C9.7412 7.10938 9.66667 7.2875 9.66667 7.5C9.66667 7.7125 9.7412 7.89062 9.89028 8.03438ZM5.45694 17.5594C5.76157 17.8531 6.12778 18 6.55556 18C6.98333 18 7.34954 17.8531 7.65417 17.5594C7.9588 17.2656 8.11111 16.9125 8.11111 16.5C8.11111 16.0875 7.9588 15.7344 7.65417 15.4406C7.34954 15.1469 6.98333 15 6.55556 15C6.12778 15 5.76157 15.1469 5.45694 15.4406C5.15231 15.7344 5 16.0875 5 16.5C5 16.9125 5.15231 17.2656 5.45694 17.5594ZM5.45694 13.0594C5.76157 13.3531 6.12778 13.5 6.55556 13.5C6.98333 13.5 7.34954 13.3531 7.65417 13.0594C7.9588 12.7656 8.11111 12.4125 8.11111 12C8.11111 11.5875 7.9588 11.2344 7.65417 10.9406C7.34954 10.6469 6.98333 10.5 6.55556 10.5C6.12778 10.5 5.76157 10.6469 5.45694 10.9406C5.15231 11.2344 5 11.5875 5 12C5 12.4125 5.15231 12.7656 5.45694 13.0594ZM5.45694 8.55937C5.76157 8.85313 6.12778 9 6.55556 9C6.98333 9 7.34954 8.85313 7.65417 8.55937C7.9588 8.26562 8.11111 7.9125 8.11111 7.5C8.11111 7.0875 7.9588 6.73438 7.65417 6.44063C7.34954 6.14687 6.98333 6 6.55556 6C6.12778 6 5.76157 6.14687 5.45694 6.44063C5.15231 6.73438 5 7.0875 5 7.5C5 7.9125 5.15231 8.26562 5.45694 8.55937Z" fill="#B2B2B2"/>
</svg>
