<svg width="24" height="24" viewBox="0 0 24 24" fill="none" xmlns="http://www.w3.org/2000/svg">
<g clip-path="url(#clip0_2437_72330)">
<path d="M12 24C18.6274 24 24 18.6274 24 12C24 5.37258 18.6274 0 12 0C5.37258 0 0 5.37258 0 12C0 18.6274 5.37258 24 12 24Z" fill="#F0F0F0"/>
<path d="M2.4813 4.69483C1.53869 5.92122 0.827922 7.33473 0.414062 8.87031H6.65678L2.4813 4.69483ZM23.5873 8.87031C23.1734 7.33478 22.4626 5.92127 21.52 4.69487L17.3447 8.87031H23.5873ZM0.414062 15.1312C0.827969 16.6667 1.53873 18.0802 2.4813 19.3066L6.65664 15.1312H0.414062ZM19.3065 2.48134C18.0801 1.53873 16.6667 0.827969 15.1311 0.414062V6.65673L19.3065 2.48134ZM4.69483 21.52C5.92122 22.4626 7.33473 23.1734 8.87027 23.5873V17.3447L4.69483 21.52ZM8.87022 0.414062C7.33469 0.827969 5.92117 1.53873 4.69483 2.4813L8.87022 6.65669V0.414062ZM15.1311 23.5873C16.6667 23.1734 18.0802 22.4626 19.3065 21.52L15.1311 17.3447V23.5873ZM17.3447 15.1312L21.52 19.3066C22.4626 18.0803 23.1734 16.6667 23.5873 15.1312H17.3447Z" fill="#0052B4"/>
<path d="M23.8984 10.4348H13.5653V0.101578C13.0462 0.0339565 12.5234 2.60722e-05 12 0C11.4694 0 10.9471 0.034875 10.4348 0.101578V10.4347H0.101578C0.0339565 10.9538 2.60722e-05 11.4766 0 12C0 12.5306 0.034875 13.0529 0.101578 13.5652H10.4347V23.8984C11.4738 24.0339 12.5261 24.0339 13.5652 23.8984V13.5653H23.8984C23.966 13.0462 24 12.5234 24 12C24 11.4695 23.9651 10.9471 23.8984 10.4348Z" fill="#D80027"/>
<path d="M15.1297 15.1297L20.4845 20.4845C20.7307 20.238 20.966 19.981 21.1899 19.7141L16.6054 15.1296H15.1297V15.1297ZM8.86878 15.1297H8.86869L3.51392 20.4845C3.76039 20.7306 4.01742 20.966 4.28431 21.1898L8.86878 16.6053V15.1297ZM8.86878 8.86883V8.86873L3.51397 3.51388C3.2678 3.76034 3.03245 4.01738 2.80859 4.28427L7.39311 8.86878H8.86878V8.86883ZM15.1297 8.86883L20.4845 3.51392C20.2381 3.26776 19.9811 3.03242 19.7142 2.80859L15.1297 7.39311V8.86883Z" fill="#D80027"/>
</g>
<defs>
<clipPath id="clip0_2437_72330">
<rect width="24" height="24" fill="white"/>
</clipPath>
</defs>
</svg>
