<svg width="24" height="24" viewBox="0 0 24 24" fill="none" xmlns="http://www.w3.org/2000/svg">
<g clip-path="url(#clip0_2437_72600)">
<path d="M12 24C18.6274 24 24 18.6274 24 12C24 5.37258 18.6274 0 12 0C5.37258 0 0 5.37258 0 12C0 18.6274 5.37258 24 12 24Z" fill="#D80027"/>
<path d="M6.56719 7.30391L7.60312 10.4914H10.9547L8.24531 12.4648L9.28125 15.6523L6.56719 13.6836L3.85313 15.6523L4.89375 12.4648L2.17969 10.4914H5.53125L6.56719 7.30391ZM14.2266 18.5867L13.4344 17.6117L12.2625 18.0664L12.9422 17.0117L12.15 16.032L13.3641 16.3555L14.0484 15.3008L14.1141 16.557L15.3328 16.8805L14.1562 17.3305L14.2266 18.5867ZM15.8016 15.7273L16.1766 14.5273L15.15 13.8008L16.4062 13.782L16.7766 12.582L17.1844 13.7727L18.4406 13.7586L17.4328 14.5086L17.8359 15.6992L16.8094 14.9727L15.8016 15.7273ZM17.925 8.80859L17.3719 9.93828L18.2719 10.8148L17.0297 10.6367L16.4766 11.7617L16.2609 10.5242L15.0141 10.3461L16.1297 9.76016L15.9141 8.51797L16.8141 9.39453L17.925 8.80859ZM14.2594 5.38672L14.1656 6.63828L15.3328 7.11172L14.1094 7.41172L14.0203 8.66797L13.3594 7.59922L12.1359 7.89922L12.9469 6.93828L12.2812 5.87422L13.4484 6.34766L14.2594 5.38672Z" fill="#FFDA44"/>
</g>
<defs>
<clipPath id="clip0_2437_72600">
<rect width="24" height="24" fill="white"/>
</clipPath>
</defs>
</svg>
