<svg width="25" height="24" viewBox="0 0 25 24" fill="none" xmlns="http://www.w3.org/2000/svg">
<g clip-path="url(#clip0_211_221)">
<path d="M12.625 0C19.253 0 24.625 5.37305 24.625 12C24.625 18.628 19.253 24 12.625 24C5.99805 24 0.625 18.6275 0.625 12C0.625 5.37305 5.99805 0 12.625 0Z" fill="#F5AC37"/>
<path d="M13.0672 12.8474H17.627C17.7242 12.8474 17.7701 12.8474 17.7771 12.7199C17.8144 12.2561 17.8144 11.7895 17.7771 11.3251C17.7771 11.2349 17.7323 11.1977 17.6346 11.1977H8.55977C8.44745 11.1977 8.41721 11.2349 8.41721 11.3402V12.6751C8.41721 12.8474 8.41721 12.8474 8.59703 12.8474H13.0672ZM17.2679 9.63758C17.2809 9.60356 17.2809 9.56629 17.2679 9.53281C17.1918 9.36703 17.1016 9.20881 16.9968 9.06031C16.8391 8.80651 16.6534 8.57268 16.4417 8.36262C16.3418 8.23572 16.2262 8.12178 16.0966 8.02512C15.4475 7.47269 14.6759 7.08173 13.8464 6.88517C13.4279 6.79121 13.0002 6.74639 12.5715 6.75017H8.54411C8.43179 6.75017 8.41667 6.79499 8.41667 6.89273V9.55495C8.41667 9.66728 8.41667 9.69752 8.55923 9.69752H17.2139C17.2139 9.69752 17.289 9.6824 17.3041 9.63758H17.2674H17.2679ZM17.2679 14.4074C17.1405 14.3934 17.0119 14.3934 16.8845 14.4074H8.56733C8.45501 14.4074 8.41721 14.4074 8.41721 14.5576V17.1604C8.41721 17.2803 8.41721 17.3105 8.56733 17.3105H12.4073C12.5909 17.3246 12.7745 17.3116 12.9543 17.2733C13.5116 17.2333 14.0597 17.1123 14.5825 16.9131C14.7725 16.8472 14.9561 16.7613 15.1295 16.6582H15.1819C16.082 16.19 16.8132 15.4545 17.2744 14.5516C17.2744 14.5516 17.3268 14.4382 17.2679 14.4085V14.4074ZM6.91006 18.66V18.6152V16.8677V16.2753V14.5127C6.91006 14.415 6.91006 14.4004 6.79017 14.4004H5.1626C5.07242 14.4004 5.03516 14.4004 5.03516 14.2805V12.8555H6.77505C6.87225 12.8555 6.91006 12.8555 6.91006 12.728V11.3181C6.91006 11.2279 6.91006 11.2058 6.79017 11.2058H5.1626C5.07242 11.2058 5.03516 11.2058 5.03516 11.0859V9.7661C5.03516 9.68348 5.03516 9.66134 5.15504 9.66134H6.76749C6.87981 9.66134 6.91006 9.66134 6.91006 9.51877V5.47629C6.91006 5.35641 6.91006 5.32617 7.06018 5.32617H12.6849C13.0931 5.34237 13.4987 5.38719 13.8999 5.46117C14.7266 5.61399 15.521 5.90938 16.2473 6.33112C16.729 6.61462 17.1723 6.95699 17.5671 7.35119C17.8641 7.65954 18.1319 7.99326 18.3695 8.34858C18.6055 8.70877 18.8015 9.09379 18.9554 9.49609C18.9743 9.60086 19.0748 9.6716 19.1795 9.65378H20.522C20.6942 9.65378 20.6942 9.65378 20.7018 9.81902V11.0491C20.7018 11.169 20.657 11.1993 20.5366 11.1993H19.5014C19.3966 11.1993 19.3664 11.1993 19.3739 11.3343C19.415 11.7911 19.415 12.2496 19.3739 12.7064C19.3739 12.8339 19.3739 12.849 19.517 12.849H20.7013C20.7536 12.9165 20.7013 12.984 20.7013 13.052C20.7088 13.139 20.7088 13.227 20.7013 13.3139V14.2217C20.7013 14.3491 20.664 14.3869 20.5511 14.3869H19.1336C19.0348 14.368 18.9387 14.4312 18.916 14.5295C18.5785 15.407 18.0385 16.1938 17.3408 16.8245C17.0859 17.054 16.8181 17.27 16.5384 17.4693C16.2381 17.6421 15.946 17.8219 15.6382 17.9645C15.0717 18.2193 14.4777 18.4073 13.868 18.5266C13.2891 18.6303 12.7022 18.6773 12.113 18.6692H6.9079V18.6616L6.91006 18.66Z" fill="#FEFEFD"/>
</g>
<defs>
<clipPath id="clip0_211_221">
<rect x="0.625" width="24" height="24" rx="12" fill="white"/>
</clipPath>
</defs>
</svg>
