<svg width="50" height="50" viewBox="0 0 50 50" fill="none" xmlns="http://www.w3.org/2000/svg">
<g clip-path="url(#clip0_892_2484)">
<circle cx="25" cy="25" r="25" fill="black"/>
<path fill-rule="evenodd" clip-rule="evenodd" d="M43.2201 23.6417C43.2188 23.6324 43.2164 23.6232 43.2138 23.6132L43.2118 23.6052C43.2102 23.6011 43.2089 23.597 43.2077 23.5928C43.2064 23.5887 43.2052 23.5845 43.2035 23.5804C43.2035 23.5804 43.2031 23.5785 43.2024 23.5762C43.2018 23.5742 43.201 23.572 43.2002 23.5704C43.1803 23.5125 43.1472 23.4479 43.0975 23.3916C43.0975 23.3916 43.0959 23.3882 43.0942 23.3882C43.0677 23.3584 43.0363 23.3319 42.9998 23.3121C42.9962 23.3085 42.9918 23.3057 42.9877 23.3032C42.9861 23.3023 42.9846 23.3014 42.9833 23.3005L37.5928 20.1881L30.2166 15.9296L30.0924 15.8584L30.051 15.8335L17.1767 8.39809H17.1734C17.1618 8.39147 17.0723 8.35172 16.9928 8.34012C16.9548 8.33515 16.9183 8.3335 16.9183 8.3335H16.8703C16.8036 8.33804 16.6954 8.40775 16.6711 8.42339L16.6711 8.42339C16.6688 8.42484 16.6673 8.42583 16.6666 8.42625C16.352 8.60761 16.0374 8.78937 15.7227 8.97114L15.7226 8.9712L15.7226 8.97121C15.408 9.15299 15.0933 9.33478 14.7787 9.51614C14.7752 9.51896 14.7713 9.52177 14.7674 9.52471L14.7674 9.52471C14.762 9.52869 14.7562 9.53291 14.7505 9.53768C14.7422 9.5443 14.7356 9.55093 14.7273 9.55921C14.7207 9.56418 14.7141 9.56915 14.7091 9.57743C14.7041 9.5824 14.6992 9.58903 14.6942 9.59565C14.6627 9.63043 14.6412 9.66853 14.6247 9.70331C14.618 9.71491 14.6131 9.7265 14.6097 9.7381C14.5998 9.76957 14.5932 9.79773 14.5882 9.81926C14.5866 9.8292 14.5849 9.84079 14.5833 9.85239V39.6306H14.5849C14.5816 39.831 14.6346 39.9586 14.7687 40.0629C14.7761 40.0678 14.7835 40.073 14.7909 40.0782C14.8036 40.087 14.8165 40.096 14.83 40.1043L16.761 41.2191L16.766 41.2224C16.7759 41.2274 16.7858 41.2307 16.7958 41.234C16.7979 41.2361 16.8007 41.2369 16.8033 41.2376C16.8048 41.238 16.8062 41.2384 16.8074 41.239C16.8132 41.2406 16.8194 41.2423 16.8256 41.2439C16.8318 41.2456 16.838 41.2472 16.8438 41.2489C16.8479 41.2505 16.8521 41.2518 16.8562 41.253C16.8604 41.2543 16.8645 41.2555 16.8686 41.2572C16.8726 41.2572 16.8765 41.2579 16.8807 41.2587C16.8852 41.2596 16.8899 41.2605 16.8951 41.2605C16.9034 41.2621 16.9117 41.2621 16.92 41.2621L16.9266 41.2621C16.9266 41.2621 16.9415 41.2655 16.9498 41.2655C16.9633 41.2655 16.9779 41.2644 16.9918 41.2621H17.0011C17.0011 41.2621 17.0028 41.2605 17.0044 41.2605C17.0061 41.2605 17.0061 41.2605 17.0077 41.2588C17.0127 41.2588 17.0177 41.2588 17.0226 41.2555C17.0309 41.2539 17.0392 41.2522 17.0475 41.2489C17.0591 41.2489 17.0707 41.2439 17.0823 41.239C17.0939 41.2356 17.1055 41.2307 17.117 41.2257C17.1386 41.2158 17.1601 41.2042 17.1816 41.1926L22.6136 38.0587L43.0015 26.2985C43.1886 26.1792 43.2267 26.0186 43.2267 25.8115V23.6881C43.2251 23.6715 43.2234 23.6549 43.2201 23.6417ZM19.1855 14.8712V19.6233L23.2959 17.2464L19.1855 14.8712ZM19.4221 24.797L27.6762 29.5632V20.0308L19.4221 24.797ZM19.1809 34.722V29.9699L23.2913 32.3451L19.1809 34.722ZM32.2701 27.2136L36.4159 24.8214L32.2701 22.4292V27.2136Z" fill="#3BD171"/>
<path fill-rule="evenodd" clip-rule="evenodd" d="M43.3304 23.3483C43.3819 23.3689 43.4643 23.4615 43.4643 23.4615C43.5523 23.5642 43.6129 23.6894 43.6394 23.8218V26.0139C43.6394 26.2402 43.6085 26.4975 43.3201 26.6827L17.4982 41.5742C17.4672 41.5948 17.4467 41.605 17.4157 41.6153C17.4106 41.6204 17.3951 41.6256 17.3796 41.6307C17.3642 41.6359 17.3488 41.641 17.3436 41.6462H17.2921H17.2818C17.251 41.6668 17.1994 41.6668 17.1685 41.6668C17.1411 41.6668 17.1182 41.6621 17.1029 41.6591C17.0953 41.6576 17.0896 41.6565 17.0861 41.6565C17.0692 41.6565 17.0521 41.6533 17.0368 41.6506C17.0243 41.6483 17.013 41.6462 17.0037 41.6462H16.9625L16.9419 41.6359C16.9317 41.6359 16.9317 41.6256 16.9214 41.6256C16.911 41.6256 16.8801 41.6153 16.8801 41.6153C16.8698 41.605 16.8389 41.5845 16.8389 41.5845L14.9335 40.4833L14.8819 40.4524C14.676 40.2981 14.5936 40.1128 14.5936 39.8658C14.5936 39.8555 14.5833 39.8349 14.5833 39.8349V10.0624C14.5833 10.0521 14.5936 10.0006 14.5936 10.0006C14.6039 9.94924 14.6142 9.91834 14.6244 9.87713C14.6244 9.86683 14.6554 9.81545 14.6554 9.80515C14.6657 9.78455 14.6965 9.72274 14.748 9.66106L14.8098 9.59925C14.8098 9.59925 14.8126 9.59636 14.8183 9.59222C14.8235 9.58845 14.8309 9.58355 14.8408 9.57865L14.8922 9.54787L16.7668 8.46724C16.7771 8.45694 16.7978 8.45694 16.808 8.44664C16.8266 8.43269 16.8596 8.41046 16.8998 8.39023C16.949 8.36548 17.0088 8.34375 17.0655 8.34375H17.1273H17.2303C17.3128 8.35405 17.4054 8.38496 17.4569 8.40556C17.4672 8.41573 17.4878 8.42603 17.4878 8.42603L43.3098 23.3279L43.3304 23.3483ZM32.6906 29.5231L42.7948 23.6983L30.2597 16.4636L28.5603 17.4515L39.2001 23.5953C39.2472 23.6222 39.2766 23.6579 39.2915 23.6995C39.2994 23.7216 39.3031 23.7453 39.3031 23.7703C39.3031 23.8253 39.2893 23.8712 39.2586 23.9079C39.2434 23.926 39.224 23.9419 39.2001 23.9556L32.6906 27.7118V29.5231ZM32.6906 22.9985V27.043L36.2028 25.0155L32.6906 22.9985ZM17.0243 8.9818C17.014 8.9818 17.0037 8.9921 17.0037 8.9921L15.4587 9.88744L26.0986 16.0313C26.1291 16.0465 26.1546 16.0717 26.1726 16.1021C26.1911 16.1333 26.2016 16.1697 26.2016 16.2063C26.2016 16.2783 26.1604 16.3504 26.0986 16.3813L19.5993 20.1478V21.959L29.6829 16.1342L17.1994 8.9303L17.1376 8.92012C17.1171 8.9303 17.0758 8.9509 17.0243 8.9818ZM19.5993 15.4344V19.4686L23.091 17.4515L19.5993 15.4344ZM25.254 16.2063L15.1704 10.3814V24.82L16.8698 25.808V13.5409C16.8698 13.4688 16.911 13.4071 16.9728 13.3659C17.0346 13.3247 17.1171 13.3247 17.1789 13.3659L23.6884 17.1222L25.254 16.2063ZM16.9728 28.4632C17.0346 28.4323 17.1171 28.4323 17.1789 28.4632L23.6781 32.2194L25.254 31.3137L15.1704 25.4787V39.8349C15.16 39.9481 15.1704 39.9584 15.2322 39.9893L16.8493 40.9258L16.8698 28.6483C16.8698 28.5764 16.911 28.5042 16.9728 28.4632ZM19.5993 34.5658L23.1013 32.5488L19.5993 30.5317V34.5658ZM17.426 40.9669L29.9611 33.722V31.7563L19.311 37.9002C19.2492 37.9414 19.177 37.9414 19.1049 37.9002C19.0431 37.8591 19.0019 37.7973 19.0019 37.7253L19.0225 30.2023L17.4467 29.2864L17.426 40.9669ZM29.9611 21.1049C29.9611 21.0328 30.0022 20.9608 30.0641 20.9299C30.1259 20.8887 30.2082 20.8887 30.27 20.9299L32.5875 22.2575C32.6081 22.2678 32.6391 22.2884 32.6391 22.2884L36.7796 24.6862L38.3555 23.7703L27.9835 17.7809L19.3315 22.7824C19.2697 22.8133 19.1873 22.8133 19.1255 22.7824C19.0637 22.7412 19.0225 22.6795 19.0225 22.5971V15.0949L17.4467 14.1892V26.1373L26.0986 31.1286C26.1604 31.1595 26.2016 31.2315 26.2016 31.3036C26.2016 31.3374 26.1925 31.3711 26.1765 31.4018C26.1584 31.4363 26.1313 31.4669 26.0986 31.4887L23.7914 32.8266L19.589 35.2451V37.0769L29.9611 31.0874V21.1049ZM43.0214 26.1887C43.0523 26.1681 43.0626 26.1476 43.0626 26.0139V24.2129L32.4228 30.3361C32.361 30.3773 32.2888 30.3773 32.2167 30.3361C32.1549 30.3052 32.1138 30.2332 32.1138 30.1611V22.6486L30.5378 21.743V33.3926L43.0214 26.1887ZM27.9526 19.767C28.0143 19.7258 28.0968 19.7258 28.1586 19.767C28.2204 19.8081 28.2616 19.8699 28.2616 19.9419V30.0582C28.2616 30.1302 28.2204 30.2023 28.1586 30.2331C28.1277 30.2537 28.0865 30.264 28.0556 30.264C28.0143 30.264 27.9526 30.2331 27.9526 30.2331L19.1976 25.1802C19.1358 25.1493 19.0946 25.0772 19.0946 25.0155V24.9949C19.0946 24.9229 19.1358 24.8611 19.1976 24.8199L27.9526 19.767ZM27.6848 20.5902L20.0422 25.0052L27.6848 29.4099V20.5902Z" fill="#1A1C19"/>
</g>
<defs>
<clipPath id="clip0_892_2484">
<rect width="50" height="50" rx="25" fill="white"/>
</clipPath>
</defs>
</svg>
