<svg width="25" height="24" viewBox="0 0 25 24" fill="none" xmlns="http://www.w3.org/2000/svg">
<g clip-path="url(#clip0_211_137)">
<path d="M12.875 24C19.525 24 24.875 18.65 24.875 12C24.875 5.34996 19.525 0 12.875 0C6.22496 0 0.875 5.34996 0.875 12C0.875 18.65 6.22496 24 12.875 24Z" fill="#2775CA"/>
<path d="M16.1746 13.9001C16.1746 12.1501 15.1246 11.5501 13.0246 11.3002C11.5246 11.1001 11.2246 10.7002 11.2246 10.0001C11.2246 9.30002 11.7246 8.85014 12.7246 8.85014C13.6246 8.85014 14.1246 9.15014 14.3746 9.90014C14.4246 10.0501 14.5746 10.1501 14.7246 10.1501H15.5245C15.7246 10.1501 15.8746 10.0001 15.8746 9.80018V9.75014C15.6745 8.6501 14.7745 7.80014 13.6246 7.70018V6.50018C13.6246 6.30014 13.4746 6.15014 13.2246 6.1001H12.4746C12.2746 6.1001 12.1246 6.2501 12.0745 6.50018V7.65014C10.5745 7.85018 9.62461 8.85014 9.62461 10.1002C9.62461 11.7502 10.6246 12.4001 12.7246 12.6502C14.1246 12.9001 14.5746 13.2001 14.5746 14.0002C14.5746 14.8002 13.8745 15.3502 12.9246 15.3502C11.6245 15.3502 11.1745 14.8001 11.0245 14.0501C10.9746 13.8502 10.8246 13.7501 10.6746 13.7501H9.82453C9.62461 13.7501 9.47461 13.9001 9.47461 14.1001V14.1502C9.67453 15.4001 10.4746 16.3001 12.1246 16.5502V17.7502C12.1246 17.9501 12.2746 18.1001 12.5245 18.1501H13.2745C13.4746 18.1501 13.6246 18.0001 13.6746 17.7502V16.5502C15.1746 16.3001 16.1746 15.2501 16.1746 13.9001Z" fill="#F7FFE4"/>
<path d="M10.325 19.1499C6.425 17.75 4.42496 13.4 5.87504 9.54992C6.62504 7.44992 8.27504 5.84996 10.325 5.09996C10.525 5 10.625 4.85 10.625 4.59992V3.89996C10.625 3.69992 10.525 3.54992 10.325 3.5C10.275 3.5 10.175 3.5 10.125 3.54992C5.375 5.04992 2.77496 10.1 4.27496 14.85C5.17496 17.6499 7.325 19.8 10.125 20.7C10.325 20.7999 10.525 20.7 10.575 20.4999C10.625 20.45 10.625 20.4 10.625 20.3V19.5999C10.625 19.4499 10.475 19.25 10.325 19.1499ZM15.625 3.54992C15.425 3.44996 15.225 3.54992 15.175 3.74996C15.125 3.8 15.125 3.84992 15.125 3.95V4.64996C15.125 4.85 15.275 5.04992 15.425 5.15C19.325 6.54992 21.325 10.8999 19.875 14.75C19.125 16.85 17.475 18.45 15.425 19.2C15.225 19.2999 15.125 19.4499 15.125 19.7V20.4C15.125 20.6 15.225 20.75 15.425 20.7999C15.475 20.7999 15.575 20.7999 15.625 20.75C20.375 19.25 22.975 14.1999 21.475 9.44996C20.575 6.59996 18.375 4.44992 15.625 3.54992Z" fill="#F7FFE4"/>
</g>
<defs>
<clipPath id="clip0_211_137">
<rect width="24" height="24" fill="white" transform="translate(0.875)"/>
</clipPath>
</defs>
</svg>
