<svg width="25" height="24" viewBox="0 0 25 24" fill="none" xmlns="http://www.w3.org/2000/svg">
<circle cx="12.875" cy="12" r="12" fill="#50AF95"/>
<path fill-rule="evenodd" clip-rule="evenodd" d="M14.5027 13.6008C14.4118 13.6082 13.9421 13.6387 12.8943 13.6387C12.0609 13.6387 11.4693 13.6115 11.2617 13.6008C8.04106 13.447 5.63716 12.8384 5.63716 12.1096C5.63716 11.3809 8.04106 10.7731 11.2617 10.6168V12.9947C11.4723 13.0111 12.0753 13.0498 12.9087 13.0498C13.9088 13.0498 14.4095 13.0045 14.4997 12.9955V10.6185C17.7135 10.7739 20.1121 11.3826 20.1121 12.1096C20.1121 12.8367 17.7142 13.4454 14.4997 13.6L14.5027 13.6008ZM14.5027 10.3725V8.24474H18.9878V5H6.77661V8.24474H11.2609V10.3717C7.61604 10.5535 4.875 11.3373 4.875 12.2766C4.875 13.2159 7.61604 13.9989 11.2609 14.1815V21H14.502V14.179C18.1385 13.9973 20.875 13.2143 20.875 12.2758C20.875 11.3373 18.1408 10.5543 14.502 10.3717L14.5027 10.3725Z" fill="#F7FFE4"/>
</svg>
