<svg width="24" height="24" viewBox="0 0 24 24" fill="none" xmlns="http://www.w3.org/2000/svg">
<circle cx="12" cy="12" r="12" fill="white"/>
<path d="M13.9249 11.3321L15.0999 9.33844L18.2669 14.2712L18.2684 15.2176L18.258 8.70346C18.2543 8.62489 18.2318 8.54835 18.1923 8.48033C18.1528 8.4123 18.0975 8.35477 18.0311 8.3126L12.3293 5.03302C12.2611 5.00065 12.1866 4.98403 12.1112 4.98438C12.0358 4.98474 11.9614 5.00206 11.8936 5.03507C11.876 5.04389 11.8589 5.05375 11.8425 5.0646L11.8227 5.07714L6.28798 8.28432L6.26643 8.29401C6.23775 8.3073 6.21037 8.32326 6.18468 8.34167C6.08088 8.4158 6.01014 8.52753 5.98754 8.65306C5.98408 8.67211 5.98172 8.69133 5.98047 8.71064L5.98913 14.019L8.93908 9.44676C9.31045 8.84051 10.1197 8.6452 10.8708 8.6558L11.7524 8.6786L6.55764 17.0094L7.17005 17.362L12.4271 8.68693L14.7507 8.67849L9.50725 17.5721L11.6926 18.8298L11.9537 18.9799C12.0663 19.0247 12.1913 19.0272 12.3057 18.9869L18.0877 15.6362L16.9817 16.2767L13.9249 11.3321ZM14.3732 17.7888L12.1662 14.3249L13.5134 12.0389L16.4118 16.6073L14.3732 17.7888Z" fill="#2D374B"/>
<path d="M12.168 14.3231L14.375 17.7868L16.4136 16.6054L13.5154 12.0371L12.168 14.3231Z" fill="#28A0F0"/>
<path d="M18.2739 15.2151L18.2724 14.2687L15.1054 9.33594L13.9297 11.3294L16.987 16.274L18.093 15.6334C18.1466 15.59 18.1904 15.5358 18.2216 15.4743C18.2527 15.4129 18.2706 15.3455 18.274 15.2767L18.2739 15.2151Z" fill="#28A0F0"/>
<path d="M5 16.1088L6.56106 17.0083L11.7559 8.67751L10.8742 8.6547C10.1231 8.6441 9.31386 8.8393 8.9425 9.44567L5.99255 14.0179L5.00057 15.5427V16.1093L5 16.1088Z" fill="white"/>
<path d="M14.7563 8.67773L12.4328 8.68617L7.17578 17.3612L9.01323 18.4192L9.51287 17.5717L14.7563 8.67773Z" fill="white"/>
<path d="M19.2511 8.66572C19.2405 8.42593 19.1717 8.19232 19.0507 7.98504C18.9296 7.77777 18.76 7.60303 18.5564 7.47591L12.7799 4.15403C12.5737 4.05269 12.3469 4 12.1172 4C11.8874 4 11.6607 4.05269 11.4545 4.15403C11.4063 4.17832 5.83691 7.40841 5.83691 7.40841C5.75953 7.44557 5.68552 7.48936 5.61571 7.53931C5.43487 7.66791 5.28552 7.83581 5.17888 8.03041C5.07224 8.22501 5.01108 8.44124 5 8.66287V15.5427L5.99198 14.0179L5.98434 8.70973C5.98898 8.63696 6.00971 8.56612 6.04502 8.50232C6.08033 8.43852 6.12935 8.38334 6.18855 8.34076C6.21478 8.32195 11.8792 5.04316 11.8972 5.03416C11.965 5.00115 12.0394 4.98383 12.1148 4.98347C12.1903 4.98312 12.2648 4.99974 12.3329 5.0321L18.0347 8.31191C18.1012 8.35409 18.1564 8.41161 18.1959 8.47964C18.2354 8.54767 18.258 8.6242 18.2617 8.70278V15.2786C18.2603 15.3468 18.2444 15.4139 18.215 15.4754C18.1856 15.5369 18.1434 15.5915 18.0912 15.6354L16.9852 16.2759L16.4151 16.6066L14.3764 17.7881L12.3089 18.9863C12.1945 19.0266 12.0695 19.0242 11.9569 18.9794L9.51078 17.5725L9.01114 18.4199L11.2095 19.6855C11.2822 19.7268 11.347 19.7635 11.4001 19.7934C11.4824 19.839 11.5385 19.8703 11.5583 19.8799C11.7422 19.9605 11.941 20.0014 12.1418 20C12.326 20.0002 12.5085 19.9659 12.68 19.8987L18.6851 16.4211C18.8545 16.2893 18.993 16.122 19.0908 15.9309C19.1885 15.7398 19.2432 15.5296 19.2509 15.3151L19.2511 8.66572Z" fill="#96BEDC"/>
</svg>
