<svg width="24" height="24" viewBox="0 0 24 24" fill="none" xmlns="http://www.w3.org/2000/svg">
<g clip-path="url(#clip0_27_2945)">
<g clip-path="url(#clip1_27_2945)">
<path d="M12 24C18.6274 24 24 18.6274 24 12C24 5.37258 18.6274 0 12 0C5.37258 0 0 5.37258 0 12C0 18.6274 5.37258 24 12 24Z" fill="#F3BA2F"/>
<path d="M13.4238 17.2336V19.0099L11.8568 19.9201L10.3343 19.0099V17.2336L11.8568 18.1438L13.4238 17.2336ZM5.03906 11.0899L6.56154 12.0001V15.0462L9.18317 16.595V18.3713L5.03906 15.9564V11.0899ZM18.6745 11.0899V15.9637L14.4858 18.3786V16.6023L17.1075 15.0536V12.0074L18.6745 11.0899ZM14.4784 8.675L16.0454 9.58518V11.3615L13.4238 12.9103V16.0004L11.9013 16.9106L10.3863 16.0004V12.9029L7.66812 11.3541V9.57783L9.23515 8.66766L11.8568 10.2164L14.4784 8.675ZM7.66812 12.6313L9.19059 13.5415V15.3178L7.66812 14.4076V12.6313ZM16.0454 12.6313V14.4076L14.523 15.3178V13.5415L16.0454 12.6313ZM6.56154 7.12623L8.12857 8.03641L6.56154 8.94658V10.7229L5.03906 9.81272V8.03641L6.56154 7.12623ZM17.152 7.12623L18.7191 8.03641V9.81272L17.152 10.7229V8.94658L15.6296 8.03641L17.152 7.12623ZM11.8568 7.12623L13.4238 8.03641L11.8568 8.94658L10.3343 8.03641L11.8568 7.12623ZM11.8568 4.08008L16.0454 6.49498L14.523 7.40516L11.9013 5.85639L9.22773 7.40516L7.70525 6.49498L11.8568 4.08008Z" fill="white"/>
</g>
</g>
<defs>
<clipPath id="clip0_27_2945">
<rect width="24" height="24" rx="12" fill="white"/>
</clipPath>
<clipPath id="clip1_27_2945">
<rect width="24" height="24" fill="white"/>
</clipPath>
</defs>
</svg>
