<svg width="24" height="24" viewBox="0 0 24 24" fill="none" xmlns="http://www.w3.org/2000/svg">
<g clip-path="url(#clip0_2442_32895)">
<circle cx="12" cy="12" r="12" fill="white"/>
<g clip-path="url(#clip1_2442_32895)">
<path d="M10.3158 18.3165C12.8741 18.3165 14.9474 16.2432 14.9474 13.6849C14.9474 11.1266 12.8741 9.05335 10.3158 9.05335C7.75747 9.05335 5.68421 11.1266 5.68421 13.6849C5.68421 16.2432 7.75747 18.3165 10.3158 18.3165ZM10.3158 20.0007C6.82779 20.0007 4 17.1729 4 13.6849C4 10.1969 6.82779 7.36914 10.3158 7.36914C13.8038 7.36914 16.6316 10.1969 16.6316 13.6849C16.6316 17.1729 13.8038 20.0007 10.3158 20.0007Z" fill="#FBCC5C"/>
<path d="M13.683 14.9474C16.2413 14.9474 18.3146 12.8741 18.3146 10.3158C18.3146 7.75747 16.2413 5.68421 13.683 5.68421C11.1247 5.68421 9.0514 7.75747 9.0514 10.3158C9.0514 12.8741 11.1247 14.9474 13.683 14.9474ZM13.683 16.6316C10.195 16.6316 7.36719 13.8038 7.36719 10.3158C7.36719 6.82779 10.195 4 13.683 4C17.171 4 19.9988 6.82779 19.9988 10.3158C19.9988 13.8038 17.171 16.6316 13.683 16.6316Z" fill="#35D07F"/>
<path d="M13.8918 16.6323C14.3297 16.1018 14.643 15.4803 14.8097 14.8117C15.4767 14.6449 16.0981 14.3317 16.6303 13.8938C16.6068 14.6668 16.44 15.4281 16.1386 16.1422C15.4261 16.442 14.6649 16.6087 13.8918 16.6323ZM9.18782 9.18977C8.52087 9.35651 7.8994 9.66977 7.36719 10.1077C7.39077 9.33461 7.5575 8.57335 7.85898 7.86093C8.5714 7.56114 9.33435 7.3944 10.1057 7.36914C9.66782 7.89967 9.35456 8.52114 9.18782 9.18977Z" fill="#5EA33B"/>
</g>
</g>
<defs>
<clipPath id="clip0_2442_32895">
<rect width="24" height="24" rx="12" fill="white"/>
</clipPath>
<clipPath id="clip1_2442_32895">
<rect width="16" height="16" fill="white" transform="translate(4 4)"/>
</clipPath>
</defs>
</svg>
