<svg width="24" height="24" viewBox="0 0 24 24" fill="none" xmlns="http://www.w3.org/2000/svg">
    <g clip-path="url(#clip0_2442_46397)">
        <path d="M12 24C18.6274 24 24 18.6274 24 12C24 5.37258 18.6274 0 12 0C5.37258 0 0 5.37258 0 12C0 18.6274 5.37258 24 12 24Z" fill="white"/>
        <path fill-rule="evenodd" clip-rule="evenodd" d="M12.0016 2.98829C12.1527 2.9874 12.2991 3.05814 12.3918 3.18481L16.2267 8.42413C16.2662 8.47808 16.294 8.53969 16.3083 8.605L18.1639 17.0825C18.2072 17.2805 18.1215 17.4843 17.9498 17.5919L12.2593 21.1576C12.1802 21.2071 12.0907 21.2314 12.0016 21.2308C11.9124 21.2314 11.8229 21.2071 11.7438 21.1576L6.05329 17.5919C5.88157 17.4843 5.79593 17.2805 5.83925 17.0825L7.69481 8.605C7.70911 8.53969 7.73689 8.47808 7.77638 8.42413L11.6113 3.18481C11.7041 3.05814 11.8504 2.9874 12.0016 2.98829ZM11.5187 4.93677L8.69508 8.79436L9.34848 10.8463L11.5187 7.01653V4.93677ZM12.0016 8.1116L9.74546 12.0929L11.2141 16.7052H12.789L14.2576 12.0929L12.0016 8.1116ZM14.9027 13.2312L13.7965 16.7052H16.8712L14.9027 13.2312ZM16.0249 17.6652H13.4908L12.8591 19.6489L16.0249 17.6652ZM12.0016 19.1779L12.4833 17.6652H11.5198L12.0016 19.1779ZM10.2066 16.7052L9.10043 13.2312L7.13186 16.7052H10.2066ZM7.45598 14.186L8.70345 11.9846L8.24971 10.5596L7.45598 14.186ZM7.97819 17.6652H10.5123L11.144 19.6489L7.97819 17.6652ZM16.5471 14.186L15.2997 11.9846L15.7534 10.5596L16.5471 14.186ZM15.308 8.79436L14.6546 10.8463L12.4844 7.01653V4.93676L15.308 8.79436Z" fill="black"/>
    </g>
    <defs>
        <clipPath id="clip0_2442_46397">
            <rect width="24" height="24" rx="12" fill="white"/>
        </clipPath>
    </defs>
</svg>
