<svg width="24" height="24" viewBox="0 0 24 24" fill="none" xmlns="http://www.w3.org/2000/svg">
    <path d="M23.6383 14.9029C22.0356 21.3315 15.5244 25.2438 9.09503 23.6407C2.66833 22.038 -1.24401 15.5265 0.359382 9.09837C1.96136 2.66903 8.47253 -1.24361 14.8999 0.359081C21.3289 1.96177 25.241 8.47404 23.6381 14.903L23.6382 14.9029H23.6383Z" fill="#F1F1F1"/>
    <mask id="mask0_3596_51521" style="mask-type:alpha" maskUnits="userSpaceOnUse" x="0" y="0" width="24" height="24">
        <path d="M23.6383 14.9029C22.0356 21.3315 15.5244 25.2438 9.09503 23.6407C2.66833 22.038 -1.24401 15.5265 0.359382 9.09837C1.96136 2.66903 8.47253 -1.24361 14.8999 0.359081C21.3289 1.96177 25.241 8.47404 23.6381 14.903L23.6382 14.9029H23.6383Z" fill="#F1F1F1"/>
    </mask>
    <g mask="url(#mask0_3596_51521)">
        <path d="M21.9433 18.996C21.6444 19.5957 21.3048 19.7131 20.6803 19.4212C20.4284 19.3038 20.1542 19.2593 19.8984 19.1578C20.0857 18.3321 20.1955 17.495 20.2818 16.6541C20.3478 16.0112 20.3275 15.3651 20.3319 14.7203C20.3319 14.6378 20.2995 14.5439 20.3839 14.4785C20.7578 15.0592 21.0243 15.6913 21.2801 16.3292C21.565 17.04 21.7618 17.7787 21.9439 18.5206V18.996H21.9433Z" fill="#4FA5CD"/>
        <path d="M19.3266 38.3279C19.3266 38.1293 19.1609 38.0449 19.0403 37.9459C18.4863 37.4889 17.8447 37.1919 17.1738 36.9495C16.4922 36.7032 15.7909 36.5154 15.1258 36.219C14.2424 35.8255 13.5709 35.2099 13.1203 34.3601C12.6615 33.4957 12.4546 32.5666 12.4438 31.5867C12.433 30.5319 12.565 29.4993 12.8557 28.4864C12.8772 28.4102 12.8988 28.3322 12.8296 28.2655C13.0359 27.8746 13.2346 27.4798 13.4491 27.0933C13.9511 26.1883 14.448 25.2814 14.8999 24.3504C14.9646 24.2177 14.95 24.1682 14.792 24.1752C14.3185 24.1974 13.8489 24.16 13.3805 24.0838C13.0867 24.0362 12.8017 23.9283 12.4984 23.9398C12.4533 23.8706 12.3879 23.8884 12.3245 23.8991C12.2927 23.8585 12.2464 23.8528 12.2001 23.8414C11.7971 23.7411 11.3877 23.6764 10.9784 23.6116C10.8787 23.6002 10.781 23.6002 10.6896 23.6491C10.6185 23.5228 10.496 23.571 10.3926 23.5653C10.0137 23.5437 9.61197 23.7011 9.26672 23.4187C9.26354 23.4041 9.26354 23.3902 9.26672 23.3756L9.21721 23.3216L9.21848 23.3242C9.23054 23.2537 9.20452 23.1934 9.16581 23.1369C9.23181 22.991 9.29337 22.8425 9.36636 22.6997C9.45013 22.5359 9.5942 22.4071 9.65005 22.2256C9.74207 22.1818 9.79855 22.1075 9.83346 22.0142C10.2339 21.603 10.6464 21.207 11.1377 20.9011C11.4721 20.6935 11.8396 20.5545 12.1861 20.3711C12.2794 20.3806 12.3632 20.3603 12.433 20.2943C12.6545 20.2423 12.876 20.189 13.0981 20.1401C13.1666 20.1249 13.2447 20.1357 13.2612 20.0392C13.312 20.0684 13.3634 20.1179 13.4116 20.036C13.7702 20.0519 14.1123 19.9434 14.4626 19.897C15.1493 19.8063 15.8347 19.7041 16.5049 19.5207C16.6376 19.4845 16.7093 19.4318 16.7372 19.2757C16.9047 18.3282 17.0425 17.3781 17.1097 16.416C17.2094 14.9905 17.1243 13.5905 16.6268 12.2381C16.4211 11.6789 16.1482 11.1553 15.7256 10.7238C15.546 10.4915 15.3251 10.3106 15.0725 10.1589C14.667 9.91524 14.2252 9.8486 13.7651 9.85177C13.7734 9.79973 13.8438 9.72865 13.715 9.72484C13.6027 9.72167 13.51 9.75531 13.4497 9.84923C13.3405 10.0206 13.18 10.1386 13.0181 10.2478C11.8904 11.0081 10.6471 11.3965 9.28385 11.3959C8.73424 11.3959 8.27095 11.2106 7.88952 10.8082C7.78417 10.6971 7.70928 10.5499 7.55506 10.489C7.39005 10.2249 7.20918 9.99267 6.84425 10.1507C6.97436 9.44813 6.70209 8.98738 6.06998 8.84331C5.30713 8.66942 4.57918 9.40942 4.75308 10.1748C4.85906 10.6413 5.15862 10.8844 5.61303 10.9637C5.38138 11.2417 5.15164 11.5209 4.96251 11.8325C4.67184 12.3123 4.43956 12.8181 4.23647 13.3398C4.07273 11.2029 4.38117 9.16191 5.45754 7.27382C6.45521 5.52472 7.95553 4.52007 9.92929 4.16466C11.3414 3.91017 12.7249 3.91778 14.0812 4.42233C15.7611 5.04746 17.0215 6.18412 17.9729 7.68253C18.9782 9.26599 19.5316 11.0068 19.7658 12.8607C19.8 13.1323 19.7708 13.4172 19.8965 13.6749C19.8235 13.7371 19.8495 13.8222 19.8527 13.897C19.8622 14.1014 19.8901 14.3051 19.8946 14.5088C19.9047 14.9747 19.8844 15.4392 19.8546 15.9044C19.8121 16.5645 19.7289 17.2182 19.6331 17.8719C19.576 18.2603 19.4326 18.6334 19.4268 19.0307C19.371 19.0599 19.3596 19.1183 19.3456 19.1697C18.9153 20.7234 18.1753 22.1354 17.3655 23.5165C16.5576 24.8936 15.6919 26.2366 14.9456 27.6506C14.4169 28.6521 14.1269 29.717 13.9676 30.827C13.8229 31.8355 13.7474 32.8528 13.5735 33.8568C13.5487 33.9996 13.5671 34.0479 13.7182 34.0726C14.2906 34.1646 14.8669 34.1602 15.4431 34.1589C15.7992 34.1583 16.1546 34.1722 16.5055 34.2294C17.3858 34.3722 17.9925 34.9268 18.4971 35.6104C18.9693 36.2501 19.3113 36.9647 19.6166 37.6958C19.7727 38.0703 19.6782 38.2505 19.3253 38.3292L19.3266 38.3279ZM10.359 9.34913C10.3272 9.30597 10.2809 9.29836 10.2327 9.30153C9.95151 9.3212 9.66782 9.32374 9.39111 9.37071C9.25212 9.39419 9.07124 9.3688 8.98176 9.53635C8.57558 9.5738 8.41692 9.71977 8.41692 10.0574C8.39915 10.2059 8.43088 10.3347 8.53687 10.449C8.7133 10.6381 8.924 10.7872 9.16581 10.8552C10.2117 11.149 11.1681 10.8812 12.0687 10.3411C12.2661 10.2224 12.3067 10.0085 12.2115 9.82702C12.0357 9.4932 11.3871 9.24251 10.9289 9.34849C10.7391 9.34849 10.5493 9.34849 10.3596 9.34913H10.359ZM12.9191 20.8401C12.7345 20.8382 12.5637 20.889 12.3968 20.9677C12.0884 21.113 11.8028 21.2914 11.5464 21.516C11.2418 21.5947 11.0437 21.8226 10.8527 22.0447C10.5735 22.369 10.6515 22.6229 11.0628 22.7377C11.2957 22.8031 11.5337 22.859 11.7825 22.8482C12.2464 22.8272 12.7097 22.8539 13.1755 22.8075C13.7639 22.7492 14.3268 22.6311 14.8402 22.3341C15.3518 22.0377 15.7598 21.6449 15.9299 21.0534C15.9972 20.8205 15.9223 20.5691 15.7002 20.4961C15.3054 20.3667 14.8954 20.281 14.488 20.4733C14.2728 20.4422 14.071 20.4974 13.8711 20.5679C13.7924 20.4796 13.6972 20.552 13.6369 20.5742C13.3977 20.6612 13.1127 20.6326 12.9191 20.8408V20.8401ZM14.8497 8.7259C14.9443 8.7259 15.0414 8.73733 15.1341 8.72273C15.242 8.70623 15.3505 8.67576 15.4527 8.63642C16.1882 8.34892 16.6775 7.65778 16.1984 6.82639C15.9236 6.3504 15.5314 5.99373 15.1055 5.66561C13.8508 4.69967 12.4317 4.2808 10.8521 4.35062C10.2047 4.37917 9.59039 4.51562 8.9881 4.73204C8.04819 5.07031 7.27645 5.64403 6.70526 6.46147C6.18675 7.20401 6.47806 8.02778 7.34182 8.31147C8.14021 8.57422 8.94685 8.44031 9.74905 8.32163C10.3704 8.23024 10.9942 8.13441 11.6206 8.12235C12.2255 8.11092 12.822 8.22326 13.4034 8.4181C13.8717 8.57485 14.3452 8.73288 14.8504 8.72527L14.8497 8.7259ZM12.7059 9.33136C12.7179 9.22791 12.6462 9.19174 12.5955 9.14985C12.3676 8.96326 12.1112 8.82427 11.8339 8.72527C10.9606 8.41175 10.0721 8.42952 9.17723 8.60976C8.74884 8.69607 8.34076 8.84014 7.96124 9.05655C7.85779 9.11558 7.71309 9.16698 7.79242 9.33961C7.86477 9.497 7.98409 9.43481 8.09642 9.398C8.21637 9.35865 8.33695 9.3212 8.45563 9.27932C9.55421 8.89155 10.6598 8.77731 11.7914 9.14731C12.0846 9.24314 12.3898 9.31867 12.7059 9.33072V9.33136ZM17.0907 9.15746C16.4376 9.11875 15.9147 9.6379 15.9122 10.3011C15.909 10.958 16.4065 11.4797 17.038 11.4866C17.6695 11.4936 18.2166 10.9015 18.2451 10.2389C18.268 9.71025 17.7146 9.08004 17.0907 9.15746ZM17.1421 8.92518C17.3331 8.91185 17.4962 8.83125 17.5013 8.64403C17.5064 8.44475 17.323 8.44475 17.1681 8.44412C16.9892 8.44285 16.8115 8.46696 16.8203 8.691C16.8273 8.87441 16.9949 8.90805 17.1421 8.92518ZM6.33844 8.68148C6.46029 8.65165 6.59674 8.61103 6.60816 8.43206C6.61895 8.26514 6.46473 8.15852 6.2115 8.17058C6.08521 8.17693 5.98938 8.23785 5.98874 8.39017C5.98874 8.55708 6.12075 8.6783 6.3378 8.68148H6.33844Z" fill="#67B0D3"/>
        <path d="M15.7258 10.7255C16.1484 11.1571 16.4213 11.6806 16.627 12.2398C17.1252 13.5928 17.2096 14.9929 17.1099 16.4177C17.0427 17.3792 16.9049 18.3293 16.7374 19.2774C16.7101 19.4335 16.6384 19.4862 16.5051 19.5224C15.8349 19.7058 15.1495 19.808 14.4628 19.8987C14.1125 19.9451 13.7698 20.0536 13.4118 20.0377C13.3731 19.8778 13.2551 19.7674 13.1688 19.6366C12.034 17.9243 10.9011 16.2108 9.76893 14.4972C9.59313 14.2313 9.58234 14.2275 9.41797 14.4972C8.62148 15.8065 7.82626 17.1164 7.03104 18.4264C6.708 18.3699 6.44526 18.1712 6.15459 18.0411C5.6126 17.7987 5.06362 17.5607 4.61746 17.1494C4.52734 16.4113 4.4258 15.6758 4.36995 14.9326C4.32997 14.4027 4.23223 13.8765 4.23858 13.3415C4.44103 12.8198 4.67395 12.3134 4.96462 11.8342C5.15311 11.5226 5.38285 11.244 5.61514 10.9654C5.92421 10.9495 6.20726 10.8569 6.45922 10.6747C6.64644 10.6658 6.82288 10.6988 6.96694 10.8264C7.16495 11.0016 7.26079 11.244 7.31029 11.4877C7.59461 12.8884 9.01814 13.5643 10.276 13.3257C11.2445 13.1416 11.9921 12.5869 12.6166 11.8368C12.9022 11.4941 13.1783 11.1317 13.5578 10.8791C13.9735 10.6024 14.4177 10.4621 14.9331 10.5211C15.2136 10.5535 15.4535 10.6944 15.7264 10.7255H15.7258Z" fill="#CFE5F0"/>
        <path d="M12.4985 23.9402C12.8019 23.9295 13.0868 24.0367 13.3807 24.0843C13.849 24.1605 14.3187 24.1979 14.7921 24.1757C14.9508 24.1681 14.9648 24.2176 14.9 24.3509C14.4481 25.2819 13.9512 26.1894 13.4492 27.0938C13.2347 27.4803 13.0354 27.8751 12.8298 28.266C12.3392 29.2358 11.9571 30.2436 11.8435 31.3314C11.7731 32.0067 11.8105 32.6826 12.0111 33.3413C12.091 33.6047 12.1615 33.8713 12.1691 34.1505C12.1748 34.3657 12.1666 34.5764 12.0644 34.7718C11.8416 35.0136 11.5852 35.0504 11.2863 34.9216C11.1473 34.862 11.0121 34.7706 10.8478 34.7864C10.6694 34.5764 10.3921 34.5484 10.1687 34.419C9.72761 34.1638 9.35189 33.8256 8.97364 33.4949C8.24824 32.8603 7.56916 32.178 7.03161 31.3701C6.33794 30.328 5.95588 29.1621 5.71027 27.9474C5.49068 26.8628 5.42594 25.7642 5.41134 24.6574C5.39929 23.7054 5.36628 22.7509 5.23047 21.8053C5.27743 21.8046 5.32376 21.8034 5.37073 21.8027C5.35613 21.9455 5.46212 22.0274 5.53574 22.1245C5.71788 22.3663 5.90193 22.6062 6.08534 22.8474C5.87401 22.9077 5.79912 23.0739 5.75723 23.2675C5.64109 23.8019 5.71407 24.3407 5.77119 24.8687C5.85814 25.676 6.112 26.4509 6.35126 27.2252C6.58672 27.9874 6.87548 28.7319 7.21185 29.4528C7.5076 30.0862 7.77161 30.745 8.31234 31.2337C8.64934 31.5383 9.17229 31.6373 9.58989 31.4545C9.9491 31.2978 10.2182 31.0344 10.453 30.7335C10.9506 30.0951 11.2203 29.3424 11.4913 28.5935C11.7648 27.8364 11.9749 27.0576 12.0492 26.2574C12.0949 25.763 12.1628 25.2451 11.9184 24.7666C12.112 24.4911 12.3049 24.2157 12.4985 23.9402Z" fill="#B7DAEA"/>
        <path d="M5.37203 21.8004C5.32507 21.801 5.27874 21.8023 5.23177 21.8029C4.85733 21.749 4.48225 21.702 4.12431 21.5649C3.23262 21.2241 2.8385 20.4517 3.09046 19.5328C3.34686 18.5979 3.88695 17.8389 4.55016 17.1554C4.56285 17.1427 4.59522 17.149 4.61806 17.1465C5.06422 17.5577 5.6132 17.7951 6.15519 18.0382C6.44586 18.1683 6.70861 18.3669 7.03164 18.4234C7.04053 18.4983 7.08876 18.5218 7.1573 18.518C7.65614 18.8429 8.12007 19.2066 8.45961 19.7067C8.46151 19.7727 8.49451 19.8184 8.55354 19.8457C8.77947 20.3927 8.96987 20.9442 8.94194 21.5529C8.921 22.013 8.66968 22.2281 8.21527 22.0999C7.76086 21.9717 7.30137 21.8899 6.83236 21.855C6.72257 21.8524 6.61214 21.8505 6.50171 21.848C6.3386 21.8467 6.1755 21.8372 6.01303 21.8454C5.86325 21.8531 5.71284 21.7337 5.56496 21.8473C5.50467 21.8156 5.44248 21.7902 5.37203 21.7997V21.8004ZM7.32231 19.7098C7.32104 19.6115 7.25123 19.6121 7.18206 19.6121C7.00753 19.501 6.83363 19.3906 6.6591 19.2795C6.64704 19.2516 6.64197 19.2104 6.62102 19.1977C6.07713 18.8765 5.52181 18.5744 4.91445 18.391C4.56412 18.2857 4.23283 18.3073 3.96945 18.6189C3.83173 18.7813 3.80635 18.9749 3.77969 19.1672C3.68449 19.8526 3.86219 20.4308 4.60981 20.7291C5.00964 20.889 5.43232 20.9233 5.84992 20.9887C6.46871 21.0851 7.09511 21.1423 7.70882 21.2647C8.04391 21.3314 8.2286 21.0255 8.16894 20.79C8.09024 20.4765 7.95125 20.1979 7.71072 19.9789C7.60981 19.8875 7.54381 19.7365 7.36928 19.7562C7.35341 19.7409 7.33754 19.7251 7.32168 19.7098H7.32231Z" fill="#67B0D3"/>
        <path d="M19.4297 19.0316C19.4354 18.6343 19.5788 18.2618 19.6359 17.8727C19.7318 17.219 19.8149 16.5653 19.8574 15.9053C19.8879 15.4401 19.9076 14.9755 19.8974 14.5097C19.893 14.3054 19.8651 14.1016 19.8555 13.8979C19.8524 13.823 19.8263 13.738 19.8993 13.6758C20.0777 13.9334 20.2585 14.1892 20.3817 14.4799C20.2973 14.5459 20.3296 14.6398 20.3296 14.7217C20.3252 15.3665 20.3455 16.0126 20.2795 16.6555C20.1932 17.4964 20.0834 18.3341 19.8962 19.1592C19.7407 19.1166 19.5852 19.0741 19.4303 19.031L19.4297 19.0316Z" fill="#3698C6"/>
        <path d="M14.8517 8.72574C14.3465 8.73336 13.8731 8.57533 13.4047 8.41857C12.8234 8.22437 12.2268 8.1114 11.622 8.12282C10.9962 8.13488 10.3724 8.23072 9.7504 8.32211C8.9482 8.44015 8.14155 8.57406 7.34316 8.31195C6.4794 8.02763 6.1881 7.20385 6.70661 6.46194C7.27779 5.64451 8.04953 5.07015 8.98945 4.73252C9.59173 4.5161 10.2067 4.37965 10.8534 4.35109C12.4337 4.28192 13.8521 4.70015 15.1069 5.66609C15.5327 5.9942 15.9256 6.35088 16.1997 6.82687C16.6795 7.65826 16.1896 8.3494 15.454 8.63689C15.3518 8.67688 15.2433 8.7067 15.1354 8.72321C15.0428 8.7378 14.9463 8.72638 14.8511 8.72638L14.8517 8.72574ZM11.1263 4.54276C10.663 4.52372 10.2124 4.5637 9.77642 4.73379C9.50605 4.83914 9.26933 4.98892 9.07513 5.20216C8.99833 5.28593 8.95962 5.38557 9.01103 5.50743C9.06561 5.63626 9.16588 5.64642 9.28266 5.64388C9.47369 5.64007 9.65964 5.60072 9.83734 5.53916C10.7049 5.23643 11.5788 5.23897 12.4654 5.45094C13.4923 5.69655 14.4214 6.104 15.1113 6.94745C15.2547 7.12325 15.4178 7.28889 15.6171 7.40948C15.7282 7.47675 15.845 7.551 15.9643 7.45327C16.0994 7.34284 16.0303 7.20512 15.9668 7.08834C15.6577 6.5197 15.256 6.03165 14.7229 5.65594C13.6433 4.89435 12.4331 4.56243 11.127 4.54339L11.1263 4.54276ZM8.19994 5.59247C7.96131 5.58993 7.63193 5.80254 7.54435 6.01134C7.49675 6.12558 7.48342 6.24235 7.57481 6.3439C7.66239 6.441 7.76838 6.53048 7.90356 6.48098C8.12061 6.40229 8.31672 6.28107 8.44999 6.08369C8.51981 5.98024 8.54138 5.85902 8.48109 5.74606C8.42144 5.63499 8.32243 5.57089 8.19994 5.59184V5.59247Z" fill="#79B9D8"/>
        <path d="M13.2656 20.0401C13.2498 20.1365 13.1711 20.1257 13.1025 20.141C12.8804 20.1898 12.6589 20.2431 12.4374 20.2952C11.5959 19.9353 10.7562 19.5711 9.91022 19.2214C9.78266 19.1687 9.74965 19.1122 9.74839 18.9846C9.73887 18.0593 9.723 17.134 9.70777 16.2093C9.70015 15.7663 9.68809 15.3233 9.68111 14.8803C9.68048 14.8334 9.65001 14.768 9.74204 14.7344C10.9155 16.5019 12.0909 18.2707 13.2656 20.0394V20.0401Z" fill="#B6F8F4"/>
        <path d="M14.4882 20.4743C14.8957 20.2814 15.3056 20.3671 15.7004 20.4972C15.9225 20.5702 15.9974 20.8209 15.9301 21.0544C15.76 21.6459 15.3526 22.0387 14.8404 22.3351C14.327 22.6321 13.7641 22.7502 13.1757 22.8086C12.7099 22.8549 12.2466 22.8283 11.7827 22.8492C11.5339 22.8606 11.2959 22.8041 11.063 22.7388C10.6517 22.6233 10.573 22.37 10.8529 22.0457C11.044 21.8242 11.242 21.5964 11.5466 21.5171C11.3797 21.7392 11.1677 21.9137 10.9564 22.0895C10.9037 22.1333 10.8028 22.1834 10.8726 22.2786C10.9265 22.3523 11.0167 22.3364 11.0916 22.3091C11.2407 22.2545 11.3778 22.1733 11.4927 22.0654C11.9014 21.6827 12.3824 21.4244 12.8959 21.2162C12.9822 21.1813 13.0729 21.1394 13.1408 21.0779C13.2443 20.9846 13.2246 20.8957 13.0844 20.8564C13.0323 20.8418 12.9752 20.8462 12.92 20.8418C13.1136 20.6336 13.3985 20.6628 13.6378 20.5752C13.6981 20.553 13.7933 20.4807 13.872 20.5689C13.8409 20.6762 13.6441 20.7085 13.7203 20.8551C13.8098 21.0278 13.9837 21.0017 14.1417 20.9859C14.2115 20.9789 14.28 20.9529 14.3499 20.9478C14.485 20.937 14.6024 20.897 14.6494 20.758C14.6995 20.6095 14.5682 20.5543 14.4882 20.4743Z" fill="#79B9D8"/>
        <path d="M15.7242 10.7256C15.4513 10.6945 15.2114 10.5536 14.9309 10.5212C14.4149 10.4622 13.9713 10.6025 13.5556 10.8792C13.1761 11.1318 12.9 11.4935 12.6144 11.8369C11.9893 12.587 11.2423 13.1417 10.2738 13.3258C9.01595 13.5644 7.59242 12.8885 7.3081 11.4878C7.2586 11.2441 7.16276 11.0017 6.96475 10.8265C6.82069 10.6996 6.64425 10.6659 6.45703 10.6748C6.61887 10.525 6.73628 10.3429 6.84353 10.1525C7.20909 9.99448 7.38933 10.2268 7.55434 10.4908C7.70031 10.8316 7.81392 11.1864 7.99479 11.5126C8.54821 12.5096 9.54715 12.8758 10.5994 12.4652C11.606 12.0723 12.3866 11.3767 13.1018 10.5949C13.3252 10.3505 13.5435 10.1011 13.7638 9.85358C14.2245 9.85105 14.6656 9.91768 15.0712 10.1608C15.3237 10.3124 15.544 10.4933 15.7242 10.7256Z" fill="#B7DAEA"/>
        <path d="M13.7641 9.85174C13.5439 10.0986 13.3256 10.3487 13.1022 10.593C12.3863 11.3749 11.6057 12.0705 10.5997 12.4633C9.54749 12.874 8.54855 12.5078 7.99514 11.5107C7.81426 11.1845 7.70066 10.8297 7.55469 10.4889C7.70891 10.5499 7.7838 10.6971 7.88915 10.8082C8.27057 11.2105 8.7345 11.3952 9.28348 11.3958C10.6467 11.3958 11.89 11.0081 13.0178 10.2478C13.179 10.1392 13.3395 10.0206 13.4493 9.8492C13.509 9.75528 13.6016 9.72164 13.7146 9.72481C13.8434 9.72862 13.773 9.7997 13.7648 9.85174H13.7641Z" fill="#2483AB"/>
        <path d="M10.9789 23.6113C11.3883 23.6761 11.7976 23.7408 12.2006 23.8411C12.2469 23.8525 12.2933 23.8576 12.325 23.8988C12.3022 23.9401 12.2838 23.9845 12.2565 24.0219C11.7107 24.7753 11.1636 25.5286 10.6165 26.2813C10.3963 26.584 10.1742 26.8861 9.93174 27.2181C9.84353 26.2762 9.92413 25.3674 9.84479 24.4649C9.8321 24.319 9.93745 24.2796 10.0301 24.2238C10.3525 24.0283 10.699 23.8709 10.9796 23.6113H10.9789Z" fill="#C5B0F3"/>
        <path d="M13.2623 20.041C12.0875 18.2723 10.9128 16.5028 9.73867 14.736C9.64665 14.7696 9.67711 14.835 9.67775 14.8819C9.68409 15.3249 9.69679 15.7679 9.7044 16.2109C9.71963 17.1362 9.73613 18.0609 9.74502 18.9862C9.74629 19.1138 9.77866 19.1703 9.90686 19.223C10.7528 19.572 11.5925 19.9369 12.434 20.2968C12.3642 20.3628 12.2805 20.3831 12.1872 20.3736C12.0221 20.2435 11.8127 20.2149 11.6268 20.1311C11.0886 19.8881 10.5447 19.6583 10.0033 19.4229C9.88337 19.3708 9.77612 19.3207 9.77802 19.5339C9.785 20.3622 9.77485 21.1904 9.83514 22.0167C9.80023 22.11 9.74375 22.1842 9.65173 22.228C9.63649 21.3465 9.61365 20.4643 9.61047 19.5828C9.60984 19.3556 9.52416 19.3721 9.37692 19.4464C9.10339 19.5834 8.81081 19.6805 8.55314 19.8494C8.49412 19.8221 8.46112 19.7764 8.45922 19.7104C8.77146 19.5593 9.07737 19.393 9.39786 19.2629C9.57239 19.1925 9.6054 19.0941 9.60159 18.9253C9.58001 18.0095 9.57811 17.0931 9.55082 16.1773C9.53622 15.6911 9.58064 15.2024 9.48925 14.6839C8.70229 15.9793 7.92928 17.2505 7.15691 18.5217C7.08837 18.5255 7.04077 18.5026 7.03125 18.4271C7.8271 17.1172 8.62169 15.8073 9.41817 14.498C9.58255 14.2283 9.59334 14.2314 9.76914 14.498C10.9014 16.2122 12.0342 17.9251 13.169 19.6374C13.2559 19.7681 13.3733 19.8792 13.412 20.0385C13.3638 20.121 13.3124 20.0709 13.2616 20.0417L13.2623 20.041Z" fill="#414EC2"/>
        <path d="M8.55648 19.8466C8.81415 19.6778 9.10672 19.5807 9.38025 19.4436C9.52749 19.37 9.61317 19.3535 9.61381 19.58C9.61698 20.4622 9.63983 21.3437 9.65506 22.2253C9.59921 22.4068 9.45514 22.5356 9.37137 22.6993C9.29838 22.8421 9.23746 22.9906 9.17082 23.1366C8.89284 22.99 8.60979 22.8523 8.33879 22.6943C7.84313 22.4055 7.30558 22.1916 6.83594 21.8559C7.30494 21.8914 7.76443 21.9727 8.21884 22.1009C8.67325 22.2291 8.92394 22.0139 8.94552 21.5538C8.97344 20.9452 8.78305 20.3936 8.55711 19.8466H8.55648Z" fill="#85A7EE"/>
        <path d="M10.9311 9.34902C11.3899 9.24303 12.0385 9.49372 12.2137 9.82754C12.3089 10.0091 12.2689 10.2229 12.0709 10.3416C11.1703 10.8811 10.2139 11.1495 9.16801 10.8557C8.92621 10.7878 8.7155 10.6393 8.53907 10.4495C8.43245 10.3353 8.40135 10.2064 8.41849 10.0579C8.62221 10.2375 8.86147 10.1836 9.08804 10.1404C9.2283 10.1138 9.35523 10.0243 9.36094 9.85483C9.36665 9.69427 9.25749 9.61938 9.11851 9.57813C9.07345 9.5648 9.02839 9.5502 8.98333 9.53624C9.07281 9.36869 9.25369 9.39471 9.39268 9.37059C9.66938 9.32363 9.95307 9.32109 10.2342 9.30142C10.2825 9.29824 10.3288 9.30586 10.3605 9.34902C10.1885 9.4366 9.97402 9.41819 9.82678 9.57241C9.74554 9.65746 9.72143 9.75202 9.75443 9.8542C9.78552 9.95194 9.88136 9.96209 9.96957 9.96526C10.0565 9.96844 10.1435 9.96717 10.2304 9.96653C10.695 9.96526 11.1608 9.94051 11.593 10.1741C11.7295 10.2477 11.8342 10.1512 11.8945 10.0256C11.9897 9.82691 11.904 9.67332 11.6489 9.54576C11.421 9.43216 11.1653 9.42771 10.9298 9.34838L10.9311 9.34902Z" fill="#79B9D8"/>
        <path d="M10.9821 23.6111C10.701 23.8707 10.3545 24.0281 10.0327 24.2236C9.94004 24.28 9.83469 24.3188 9.84738 24.4647C9.92671 25.3672 9.84611 26.276 9.93433 27.2178C10.1774 26.8859 10.3989 26.5838 10.6191 26.2811C11.1662 25.5284 11.7133 24.7757 12.2591 24.0217C12.2863 23.9837 12.3054 23.9399 12.3276 23.8986C12.3911 23.8885 12.4564 23.8707 12.5015 23.9392C12.3079 24.2147 12.115 24.4901 11.9214 24.7656C11.884 24.8055 11.8408 24.8411 11.8091 24.8855C11.1973 25.7385 10.5855 26.5914 9.97622 27.4463C9.88927 27.5682 9.8258 27.6126 9.71157 27.466C8.89731 26.4195 8.07353 25.3805 7.26118 24.3321C6.87467 23.8326 6.49515 23.3281 6.08707 22.8457C5.90366 22.6052 5.71961 22.3647 5.53746 22.1229C5.46384 22.0258 5.35786 21.9439 5.37246 21.8011C5.4429 21.7909 5.5051 21.8163 5.56539 21.8487C5.96839 22.0994 6.39424 22.3075 6.81502 22.5246C7.19264 22.7981 7.62102 22.9828 8.02085 23.2176C8.52985 23.5166 9.04709 23.8015 9.56496 24.0852C9.65952 24.1372 9.76297 24.2394 9.88292 24.1207C10.152 23.9634 10.4217 23.8053 10.6908 23.6479C10.7822 23.5991 10.88 23.5991 10.9796 23.6105L10.9821 23.6111ZM5.85162 22.2314C5.86431 22.2504 5.87637 22.2695 5.88906 22.2885C5.90874 22.3221 5.9246 22.359 5.94872 22.3901C7.00097 23.7419 8.05322 25.0943 9.10738 26.4448C9.30666 26.7 9.51609 26.9475 9.70014 27.1722C9.70014 26.2608 9.69887 25.345 9.70141 24.4292C9.70141 24.3295 9.64239 24.3035 9.56813 24.2629C8.84273 23.8631 8.12303 23.4518 7.39699 23.0539C6.90641 22.7848 6.44057 22.47 5.92587 22.2454C5.9062 22.2339 5.88716 22.2231 5.86748 22.2117C5.85416 22.1908 5.83892 22.1806 5.82242 22.2079C5.82179 22.2092 5.84146 22.2231 5.85162 22.2308V22.2314Z" fill="#414EC2"/>
        <path d="M9.83449 22.0161C9.7742 21.1891 9.78435 20.3609 9.77737 19.5333C9.77546 19.3201 9.88272 19.3702 10.0027 19.4223C10.544 19.6577 11.0886 19.8875 11.6261 20.1305C11.8114 20.2143 12.0215 20.2429 12.1865 20.373C11.8406 20.5564 11.4725 20.6954 11.1381 20.9029C10.6468 21.2082 10.2343 21.6048 9.83385 22.0161H9.83449Z" fill="#C5B0F3"/>
        <path d="M12.7097 9.33067C12.3937 9.31862 12.0884 9.24309 11.7952 9.14726C10.6636 8.77726 9.55807 8.8915 8.45949 9.27927C8.34017 9.32115 8.21959 9.3586 8.10027 9.39795C7.98794 9.43476 7.86863 9.49695 7.79628 9.33956C7.71694 9.16693 7.86164 9.11553 7.96509 9.0565C8.34525 8.84009 8.75333 8.69602 9.18108 8.60971C10.0759 8.42947 10.9645 8.4117 11.8377 8.72522C12.1144 8.82486 12.3708 8.96321 12.5993 9.1498C12.6501 9.19169 12.7224 9.22786 12.7097 9.33131V9.33067Z" fill="#2483AB"/>
        <path d="M10.9319 9.34766C11.168 9.42699 11.4231 9.43143 11.6509 9.54503C11.9061 9.6726 11.9917 9.82618 11.8965 10.0248C11.8362 10.1505 11.7315 10.247 11.5951 10.1733C11.1622 9.93979 10.697 9.96454 10.2325 9.96581C10.1455 9.96581 10.0586 9.96708 9.97164 9.96454C9.88278 9.96136 9.78759 9.95121 9.75649 9.85347C9.72349 9.75066 9.7476 9.6561 9.82884 9.57169C9.97608 9.41747 10.1906 9.43587 10.3626 9.34829C10.5523 9.34829 10.7421 9.34829 10.9319 9.34766Z" fill="#ACD4E6"/>
        <path d="M9.8804 24.1219C9.76046 24.2405 9.65701 24.1384 9.56244 24.0863C9.0452 23.802 8.52733 23.5177 8.01834 23.2188C7.61851 22.9839 7.18948 22.7992 6.8125 22.5257C6.97053 22.5219 7.12856 22.5181 7.28595 22.5137C7.36338 22.5118 7.45223 22.5289 7.46429 22.4121C7.64516 22.5086 7.82413 22.6089 8.00628 22.7015C8.41055 22.9078 8.78627 23.1699 9.21719 23.3247L9.21592 23.3222C9.21339 23.3577 9.23877 23.3679 9.26543 23.3761C9.26225 23.3907 9.26225 23.4047 9.26543 23.4193C9.2832 23.649 9.41838 23.8014 9.5891 23.9391C9.68049 24.0127 9.8144 24.0127 9.8804 24.1225V24.1219Z" fill="#CFE5F0"/>
        <path d="M17.0965 9.15874C17.7204 9.08194 18.2738 9.71215 18.251 10.2402C18.2224 10.9021 17.6753 11.4943 17.0439 11.4879C16.413 11.4809 15.9154 10.9592 15.918 10.3024C15.9212 9.6398 16.4441 9.12002 17.0965 9.15874ZM17.0426 11.3026C17.5966 11.3007 18.079 10.8139 18.0828 10.2535C18.0859 9.73246 17.6518 9.31613 17.1003 9.31105C16.5393 9.30597 16.0931 9.74515 16.0862 10.3106C16.0792 10.8609 16.5069 11.3051 17.0432 11.3032L17.0426 11.3026Z" fill="#3698C6"/>
        <path d="M6.847 10.1514C6.73974 10.3418 6.62233 10.5239 6.46049 10.6737C6.20854 10.8558 5.92548 10.9485 5.61641 10.9644C5.162 10.885 4.86244 10.642 4.75645 10.1755C4.58256 9.41011 5.3105 8.6701 6.07336 8.844C6.70483 8.98807 6.97773 9.44819 6.84763 10.1514H6.847ZM5.72366 10.8152C6.2555 10.8082 6.74164 10.3297 6.73657 9.81819C6.73212 9.36822 6.31643 8.98235 5.84044 8.98743C5.30162 8.99314 4.88275 9.43867 4.89417 9.99335C4.90433 10.4687 5.2591 10.8209 5.72366 10.8152Z" fill="#3698C6"/>
        <path d="M12.9188 20.8425C12.9734 20.8469 13.0312 20.8425 13.0832 20.8571C13.2235 20.8964 13.2431 20.9853 13.1397 21.0785C13.0718 21.1401 12.981 21.1814 12.8947 21.2169C12.3813 21.4251 11.9002 21.684 11.4915 22.0661C11.3766 22.174 11.2389 22.2552 11.0904 22.3098C11.0161 22.3371 10.9254 22.3529 10.8714 22.2793C10.8016 22.1841 10.9025 22.134 10.9552 22.0902C11.1672 21.9144 11.3785 21.7392 11.5454 21.5177C11.8018 21.2931 12.0874 21.1147 12.3959 20.9694C12.5628 20.8907 12.7335 20.8406 12.9182 20.8418L12.9188 20.8425Z" fill="#ACD4E6"/>
        <path d="M8.98671 9.53516C9.03177 9.54912 9.0762 9.56372 9.1219 9.57704C9.26088 9.6183 9.37004 9.69318 9.36433 9.85375C9.35862 10.0226 9.23106 10.1121 9.09143 10.1393C8.86486 10.1825 8.6256 10.2371 8.42188 10.0568C8.42188 9.71921 8.58054 9.5726 8.98671 9.53579V9.53516Z" fill="#ACD4E6"/>
        <path d="M9.22148 23.3245C8.79056 23.1697 8.41484 22.9076 8.01057 22.7013C7.82779 22.6087 7.64882 22.5084 7.46858 22.4119C7.14363 22.2298 6.80283 22.0762 6.50391 21.8496C6.61434 21.8521 6.72413 21.8541 6.83456 21.8566C7.3042 22.1917 7.84112 22.4062 8.33741 22.695C8.60904 22.853 8.8921 22.9907 9.16944 23.1373C9.20816 23.1938 9.23354 23.2541 9.22212 23.3245H9.22148Z" fill="#414EC2"/>
        <path d="M9.88451 24.1212C9.8185 24.012 9.68459 24.0114 9.5932 23.9377C9.42248 23.8 9.2873 23.6477 9.26953 23.418C9.61478 23.6998 10.0165 23.543 10.3954 23.5646C10.4989 23.5703 10.6213 23.522 10.6924 23.6483C10.4233 23.8057 10.1536 23.9638 9.88451 24.1212Z" fill="#B7DAEA"/>
        <path d="M14.4884 20.475C14.5684 20.555 14.6998 20.6102 14.6496 20.7587C14.6027 20.8977 14.4853 20.9377 14.3501 20.9485C14.2803 20.9542 14.2117 20.9796 14.1419 20.9866C13.9833 21.0024 13.81 21.0285 13.7205 20.8558C13.6444 20.7092 13.8411 20.6762 13.8722 20.5696C14.0721 20.4998 14.2739 20.4446 14.4891 20.4757L14.4884 20.475Z" fill="#ACD4E6"/>
        <path d="M17.1424 8.92447C16.9952 8.90733 16.8282 8.87433 16.8206 8.69028C16.8117 8.46625 16.9895 8.44214 17.1684 8.4434C17.3233 8.44404 17.5067 8.4434 17.5016 8.64332C17.4965 8.82991 17.3334 8.91114 17.1424 8.92447Z" fill="#3698C6"/>
        <path d="M6.34125 8.68183C6.1242 8.67866 5.99156 8.55744 5.99219 8.39053C5.99219 8.23821 6.08866 8.17728 6.21495 8.17094C6.46754 8.15825 6.62176 8.2655 6.61161 8.43241C6.60019 8.61139 6.46374 8.652 6.34188 8.68183H6.34125Z" fill="#3698C6"/>
        <path d="M9.26453 23.3743C9.23724 23.366 9.21248 23.3559 9.21502 23.3203C9.23152 23.3381 9.24803 23.3565 9.26453 23.3743Z" fill="#414EC2"/>
        <path d="M6.08781 22.8477C6.49589 23.33 6.87478 23.8345 7.26192 24.334C8.07427 25.3825 8.89805 26.4214 9.71231 27.4679C9.82654 27.6145 9.89001 27.5695 9.97695 27.4482C10.5856 26.5934 11.1974 25.7404 11.8098 24.8874C11.8416 24.8436 11.8847 24.8075 11.9222 24.7675C12.1665 25.246 12.0986 25.7639 12.0529 26.2583C11.9786 27.0586 11.7686 27.8373 11.495 28.5944C11.224 29.3439 10.9543 30.096 10.4568 30.7345C10.2226 31.0353 9.95284 31.2987 9.59363 31.4554C9.17602 31.6376 8.65307 31.5386 8.31607 31.2346C7.77535 30.7459 7.51133 30.0871 7.21559 29.4537C6.87922 28.7321 6.59046 27.9883 6.355 27.2261C6.11574 26.4518 5.86188 25.6763 5.77493 24.8697C5.71781 24.3416 5.64482 23.8028 5.76097 23.2684C5.80285 23.0749 5.87774 22.9086 6.08908 22.8483L6.08781 22.8477Z" fill="#CFE5F0"/>
        <path d="M7.3707 19.756C7.54523 19.7363 7.61124 19.8874 7.71215 19.9788C7.95268 20.1977 8.09103 20.4763 8.17037 20.7899C8.23002 21.0259 8.04534 21.3318 7.71024 21.2646C7.09654 21.1421 6.47077 21.0843 5.85135 20.9885C5.43438 20.9238 5.01171 20.8889 4.61124 20.7289C3.86362 20.4306 3.68655 19.8525 3.78112 19.167C3.80777 18.9747 3.83316 18.7812 3.97088 18.6187C4.23426 18.3077 4.56555 18.2855 4.91587 18.3909C5.52324 18.5743 6.07855 18.8764 6.62245 19.1975C6.64403 19.2102 6.64847 19.2515 6.66053 19.2794C6.60151 19.2584 6.54312 19.2369 6.4841 19.2166C6.13631 19.0998 5.79423 18.9443 5.41154 19.0255C5.34363 19.0401 5.26176 19.0509 5.24907 19.1385C5.23574 19.2324 5.28334 19.3079 5.35886 19.3587C5.40329 19.3892 5.4585 19.4038 5.50991 19.4241C6.07856 19.6507 6.67068 19.8284 7.16254 20.2168C7.37197 20.3824 7.58395 20.5455 7.801 20.701C7.85431 20.7391 7.91333 20.8425 8.00028 20.7524C8.07326 20.6762 8.00789 20.6039 7.97299 20.5373C7.81813 20.2415 7.59029 20.0016 7.3707 19.7547V19.756ZM4.47796 18.6162C4.43037 18.6187 4.29392 18.5952 4.2552 18.7234C4.21458 18.858 4.30661 18.9627 4.41767 19.0344C4.53127 19.108 4.65567 19.1442 4.79529 19.141C4.91587 19.1385 4.99203 19.0928 5.02503 18.9824C5.06248 18.8573 5.00282 18.7659 4.89747 18.7107C4.78704 18.6523 4.66773 18.6098 4.47796 18.6168V18.6162Z" fill="#79B9D8"/>
        <path d="M7.16016 18.5194C7.93253 17.2482 8.7049 15.977 9.4925 14.6816C9.58389 15.2002 9.5401 15.6895 9.55406 16.175C9.58135 17.0908 9.58326 18.0072 9.60483 18.923C9.60864 19.0918 9.57564 19.1902 9.40111 19.2606C9.08061 19.3901 8.77407 19.5564 8.46246 19.7081C8.12292 19.208 7.65899 18.8443 7.16016 18.5194Z" fill="#EAC8BF"/>
        <path d="M7.36606 19.7577C7.58501 20.0039 7.81349 20.2445 7.96834 20.5402C8.00325 20.6069 8.06862 20.6792 7.99563 20.7554C7.90869 20.8455 7.84966 20.7427 7.79635 20.704C7.5793 20.5485 7.36733 20.3854 7.15789 20.2197C6.66604 19.8307 6.07391 19.6536 5.50526 19.427C5.45449 19.4067 5.39927 19.3915 5.35421 19.3617C5.27869 19.3109 5.23109 19.2347 5.24442 19.1414C5.25648 19.0539 5.33898 19.0424 5.40689 19.0285C5.78958 18.9472 6.13103 19.1021 6.47945 19.2195C6.53847 19.2392 6.5975 19.2614 6.65588 19.2823C6.83041 19.3934 7.00431 19.5038 7.17884 19.6149C7.20422 19.6777 7.25182 19.7095 7.31909 19.7126C7.33496 19.7279 7.35083 19.7437 7.36669 19.759L7.36606 19.7577Z" fill="#ACD4E6"/>
        <path d="M6.50315 21.8481C6.80207 22.0747 7.14351 22.2283 7.46782 22.4104C7.45513 22.5272 7.36691 22.5101 7.28948 22.512C7.13146 22.5158 6.97406 22.5196 6.81604 22.524C6.39526 22.307 5.96941 22.0982 5.56641 21.8481C5.71491 21.7345 5.86469 21.8539 6.01447 21.8462C6.17694 21.838 6.34068 21.8469 6.50315 21.8488V21.8481Z" fill="#B7DAEA"/>
        <path d="M7.31995 19.711C7.25267 19.7078 7.20507 19.6761 7.17969 19.6133C7.24886 19.6133 7.31868 19.6133 7.31995 19.711Z" fill="#79B9D8"/>
        <path d="M11.1279 4.54205C12.434 4.56109 13.6443 4.89302 14.7238 5.6546C15.2569 6.03031 15.6586 6.51836 15.9677 7.08701C16.0312 7.20442 16.1004 7.3415 15.9652 7.45193C15.8459 7.54967 15.7291 7.47541 15.618 7.40814C15.4187 7.28755 15.2563 7.12191 15.1122 6.94611C14.4223 6.10203 13.4932 5.69521 12.4663 5.4496C11.5804 5.23763 10.7065 5.23509 9.83826 5.53782C9.66056 5.60002 9.47524 5.63873 9.28357 5.64254C9.1668 5.64508 9.06652 5.63492 9.01194 5.50609C8.9599 5.38424 8.99925 5.2846 9.07604 5.20082C9.27025 4.98821 9.50697 4.8378 9.77733 4.73245C10.2133 4.563 10.6639 4.52238 11.1272 4.54142L11.1279 4.54205Z" fill="#ACD4E6"/>
        <path d="M8.2005 5.59381C8.32298 5.57287 8.42199 5.63633 8.48165 5.74803C8.54257 5.861 8.52036 5.98222 8.45055 6.08567C8.31727 6.28304 8.12117 6.40363 7.90411 6.48296C7.76893 6.53246 7.66231 6.44298 7.57537 6.34587C7.48398 6.24433 7.4973 6.12755 7.5449 6.01332C7.63185 5.80452 7.96187 5.59254 8.2005 5.59445V5.59381Z" fill="#ACD4E6"/>
        <path d="M5.9268 22.2441C6.4415 22.4694 6.9067 22.7842 7.39792 23.0533C8.1246 23.4512 8.84366 23.8619 9.56906 24.2623C9.64332 24.303 9.70298 24.329 9.70234 24.4286C9.6998 25.3444 9.70107 26.2602 9.70107 27.1716C9.51702 26.9463 9.30759 26.6994 9.10831 26.4443C8.05352 25.0937 7.0019 23.7419 5.94965 22.3895C5.92553 22.359 5.90966 22.3222 5.89062 22.2879C5.90268 22.2733 5.91474 22.2587 5.92743 22.2441H5.9268Z" fill="#EAC8BF"/>
        <path d="M5.85347 22.2291C5.84332 22.2215 5.82301 22.2075 5.82428 22.2063C5.84014 22.1783 5.85537 22.1891 5.86934 22.2101C5.86489 22.2171 5.85918 22.2234 5.8541 22.2298L5.85347 22.2291Z" fill="#EAC8BF"/>
        <path d="M5.86352 22.2109C5.8832 22.2224 5.90224 22.2331 5.92191 22.2439C5.90985 22.2585 5.89779 22.2731 5.8851 22.2877C5.87241 22.2687 5.86035 22.2497 5.84766 22.2306C5.85337 22.2243 5.85845 22.2179 5.86289 22.2116L5.86352 22.2109Z" fill="#EAC8BF"/>
        <path d="M17.0353 11.3028C16.4996 11.3047 16.0712 10.861 16.0782 10.3102C16.0852 9.74533 16.5313 9.30551 17.0924 9.31059C17.6439 9.31567 18.078 9.732 18.0748 10.253C18.071 10.8134 17.5887 11.3002 17.0346 11.3021L17.0353 11.3028ZM17.0714 11.1581C17.5481 11.1581 17.9047 10.795 17.9022 10.3133C17.8997 9.84116 17.5569 9.46862 17.1254 9.46735C16.5999 9.46608 16.2705 9.76944 16.2629 10.2619C16.2553 10.7658 16.6094 11.1581 17.0714 11.1581Z" fill="#FDFDFD"/>
        <path d="M5.72034 10.8142C5.25578 10.8199 4.90101 10.4683 4.89085 9.9923C4.87943 9.43761 5.2983 8.99209 5.83712 8.98638C6.31247 8.9813 6.7288 9.36717 6.73325 9.81714C6.73832 10.3287 6.25218 10.8072 5.72034 10.8142ZM5.81173 10.6257C6.20902 10.6308 6.60251 10.2487 6.60187 9.85902C6.6006 9.50425 6.24393 9.16218 5.86885 9.15583C5.47219 9.14948 5.12821 9.48775 5.12187 9.89012C5.11615 10.2722 5.44363 10.6206 5.81173 10.6257Z" fill="#FDFDFD"/>
        <path d="M4.47469 18.618C4.66509 18.6111 4.78377 18.6536 4.89419 18.712C4.99955 18.7672 5.0592 18.8586 5.02176 18.9836C4.98876 19.0947 4.9126 19.1404 4.79202 19.1423C4.65176 19.1448 4.528 19.1093 4.4144 19.0356C4.30397 18.9639 4.21131 18.8592 4.25193 18.7247C4.29064 18.5965 4.42709 18.6199 4.47469 18.6174V18.618Z" fill="#ACD4E6"/>
        <path d="M17.0743 11.1556C16.6116 11.1556 16.2581 10.7633 16.2657 10.2594C16.2727 9.76758 16.6027 9.46358 17.1282 9.46485C17.5598 9.46612 17.9025 9.83929 17.9051 10.3108C17.9082 10.7925 17.5509 11.1556 17.0743 11.1556Z" fill="#045779"/>
        <path d="M5.81103 10.6281C5.44294 10.6231 5.11546 10.274 5.12117 9.89258C5.12688 9.49085 5.47149 9.15194 5.86815 9.15829C6.24323 9.16464 6.5999 9.50671 6.60117 9.86148C6.60244 10.2512 6.20833 10.6332 5.81103 10.6281Z" fill="#045779"/>
    </g>
</svg>
